<?xml version="1.0" encoding="UTF-8" standalone="no"?>
<!DOCTYPE svg PUBLIC "-//W3C//DTD SVG 1.1//EN"
 "http://www.w3.org/Graphics/SVG/1.1/DTD/svg11.dtd">
<!-- Generated by graphviz version 2.40.1 (20161225.0304)
 -->
<!-- Title: %3 Pages: 1 -->
<svg width="1529pt" height="715pt"
 viewBox="0.00 0.00 1529.00 715.00" xmlns="http://www.w3.org/2000/svg" xmlns:xlink="http://www.w3.org/1999/xlink">
<g id="graph0" class="graph" transform="scale(1 1) rotate(0) translate(4 711)">
<title>%3</title>
<polygon fill="#ffffff" stroke="transparent" points="-4,4 -4,-711 1525,-711 1525,4 -4,4"/>
<text text-anchor="middle" x="176.5" y="-691.8" font-family="Helvetica,sans-Serif" font-size="14.00" fill="#000000">./hosts2dot.sh &#45; Thu Aug 22 14:02:13 BST 2019</text>
<!-- soy_yo -->
<g id="node1" class="node">
<title>soy_yo</title>
<path fill="#d3d3d3" stroke="#ffffff" d="M805,-684C805,-684 731,-684 731,-684 725,-684 719,-678 719,-672 719,-672 719,-660 719,-660 719,-654 725,-648 731,-648 731,-648 805,-648 805,-648 811,-648 817,-654 817,-660 817,-660 817,-672 817,-672 817,-678 811,-684 805,-684"/>
<text text-anchor="middle" x="768" y="-662.3" font-family="Helvetica,sans-Serif" font-size="14.00" fill="#000000">magnum&#45;ci</text>
</g>
<!-- localhost -->
<g id="node3" class="node">
<title>localhost</title>
<path fill="#d3d3d3" stroke="#ffffff" d="M188,-612C188,-612 132,-612 132,-612 126,-612 120,-606 120,-600 120,-600 120,-588 120,-588 120,-582 126,-576 132,-576 132,-576 188,-576 188,-576 194,-576 200,-582 200,-588 200,-588 200,-600 200,-600 200,-606 194,-612 188,-612"/>
<text text-anchor="middle" x="160" y="-590.3" font-family="Helvetica,sans-Serif" font-size="14.00" fill="#000000">localhost</text>
</g>
<!-- soy_yo&#45;&#45;localhost -->
<g id="edge1" class="edge">
<title>soy_yo&#45;&#45;localhost</title>
<path fill="none" stroke="#000000" d="M718.7629,-663.7749C623.2508,-658.8668 406.4304,-644.8312 227,-612 218.2327,-610.3958 208.9357,-608.215 200.1477,-605.925"/>
</g>
<!-- ex9k1.dc7.fsn1.hetzner.com -->
<g id="node5" class="node">
<title>ex9k1.dc7.fsn1.hetzner.com</title>
<path fill="#d3d3d3" stroke="#ffffff" d="M442,-612C442,-612 248,-612 248,-612 242,-612 236,-606 236,-600 236,-600 236,-588 236,-588 236,-582 242,-576 248,-576 248,-576 442,-576 442,-576 448,-576 454,-582 454,-588 454,-588 454,-600 454,-600 454,-606 448,-612 442,-612"/>
<text text-anchor="middle" x="345" y="-590.3" font-family="Helvetica,sans-Serif" font-size="14.00" fill="#000000">ex9k1.dc7.fsn1.hetzner.com</text>
</g>
<!-- soy_yo&#45;&#45;ex9k1.dc7.fsn1.hetzner.com -->
<g id="edge3" class="edge">
<title>soy_yo&#45;&#45;ex9k1.dc7.fsn1.hetzner.com</title>
<path fill="none" stroke="#000000" d="M718.6487,-657.5998C653.3771,-646.4897 536.6133,-626.615 450.9338,-612.0313"/>
</g>
<!-- ae0.cbs01.tg01.lon01.networklayer.com -->
<g id="node9" class="node">
<title>ae0.cbs01.tg01.lon01.networklayer.com</title>
<path fill="#d3d3d3" stroke="#ffffff" d="M782,-612C782,-612 502,-612 502,-612 496,-612 490,-606 490,-600 490,-600 490,-588 490,-588 490,-582 496,-576 502,-576 502,-576 782,-576 782,-576 788,-576 794,-582 794,-588 794,-588 794,-600 794,-600 794,-606 788,-612 782,-612"/>
<text text-anchor="middle" x="642" y="-590.3" font-family="Helvetica,sans-Serif" font-size="14.00" fill="#000000">ae0.cbs01.tg01.lon01.networklayer.com</text>
</g>
<!-- soy_yo&#45;&#45;ae0.cbs01.tg01.lon01.networklayer.com -->
<g id="edge8" class="edge">
<title>soy_yo&#45;&#45;ae0.cbs01.tg01.lon01.networklayer.com</title>
<path fill="none" stroke="#000000" d="M736.2049,-647.8314C717.1042,-636.9167 692.8838,-623.0764 673.7849,-612.1628"/>
</g>
<!-- 209.85.143.103 -->
<g id="node18" class="node">
<title>209.85.143.103</title>
<path fill="#d3d3d3" stroke="#ffffff" d="M947.5,-612C947.5,-612 842.5,-612 842.5,-612 836.5,-612 830.5,-606 830.5,-600 830.5,-600 830.5,-588 830.5,-588 830.5,-582 836.5,-576 842.5,-576 842.5,-576 947.5,-576 947.5,-576 953.5,-576 959.5,-582 959.5,-588 959.5,-588 959.5,-600 959.5,-600 959.5,-606 953.5,-612 947.5,-612"/>
<text text-anchor="middle" x="895" y="-590.3" font-family="Helvetica,sans-Serif" font-size="14.00" fill="#000000">209.85.143.103</text>
</g>
<!-- soy_yo&#45;&#45;209.85.143.103 -->
<g id="edge18" class="edge">
<title>soy_yo&#45;&#45;209.85.143.103</title>
<path fill="none" stroke="#000000" d="M800.0475,-647.8314C819.2997,-636.9167 843.7124,-623.0764 862.9628,-612.1628"/>
</g>
<!-- brignull.com # Harry&#39;s website -->
<g id="node22" class="node">
<title>brignull.com # Harry&#39;s website</title>
<path fill="#ff0000" stroke="#ffffff" d="M1202.5,-612C1202.5,-612 989.5,-612 989.5,-612 983.5,-612 977.5,-606 977.5,-600 977.5,-600 977.5,-588 977.5,-588 977.5,-582 983.5,-576 989.5,-576 989.5,-576 1202.5,-576 1202.5,-576 1208.5,-576 1214.5,-582 1214.5,-588 1214.5,-588 1214.5,-600 1214.5,-600 1214.5,-606 1208.5,-612 1202.5,-612"/>
<text text-anchor="middle" x="1096" y="-590.3" font-family="Helvetica,sans-Serif" font-size="14.00" fill="#ffffff">brignull.com # Harry&#39;s website</text>
</g>
<!-- soy_yo&#45;&#45;brignull.com # Harry&#39;s website -->
<g id="edge23" class="edge">
<title>soy_yo&#45;&#45;brignull.com # Harry&#39;s website</title>
<path fill="none" stroke="#000000" d="M817.1049,-655.2209C869.021,-643.8247 951.8073,-625.6521 1013.7204,-612.0614"/>
</g>
<!-- ae0.cr&#45;merak.lon5.bb.godaddy.com -->
<g id="node24" class="node">
<title>ae0.cr&#45;merak.lon5.bb.godaddy.com</title>
<path fill="#d3d3d3" stroke="#ffffff" d="M1491,-612C1491,-612 1245,-612 1245,-612 1239,-612 1233,-606 1233,-600 1233,-600 1233,-588 1233,-588 1233,-582 1239,-576 1245,-576 1245,-576 1491,-576 1491,-576 1497,-576 1503,-582 1503,-588 1503,-588 1503,-600 1503,-600 1503,-606 1497,-612 1491,-612"/>
<text text-anchor="middle" x="1368" y="-590.3" font-family="Helvetica,sans-Serif" font-size="14.00" fill="#000000">ae0.cr&#45;merak.lon5.bb.godaddy.com</text>
</g>
<!-- soy_yo&#45;&#45;ae0.cr&#45;merak.lon5.bb.godaddy.com -->
<g id="edge24" class="edge">
<title>soy_yo&#45;&#45;ae0.cr&#45;merak.lon5.bb.godaddy.com</title>
<path fill="none" stroke="#000000" d="M817.1616,-660.2532C900.616,-650.4781 1075.3307,-629.9283 1223,-612 1226.2736,-611.6026 1229.5887,-611.199 1232.9326,-610.7911"/>
</g>
<!-- 127.0.0.1 localhost # for local people -->
<g id="node2" class="node">
<title>127.0.0.1 localhost # for local people</title>
<path fill="#ff0000" stroke="#ffffff" d="M272,-540C272,-540 12,-540 12,-540 6,-540 0,-534 0,-528 0,-528 0,-516 0,-516 0,-510 6,-504 12,-504 12,-504 272,-504 272,-504 278,-504 284,-510 284,-516 284,-516 284,-528 284,-528 284,-534 278,-540 272,-540"/>
<text text-anchor="middle" x="142" y="-518.3" font-family="Helvetica,sans-Serif" font-size="14.00" fill="#ffffff">127.0.0.1 localhost # for local people</text>
</g>
<!-- localhost&#45;&#45;127.0.0.1 localhost # for local people -->
<g id="edge2" class="edge">
<title>localhost&#45;&#45;127.0.0.1 localhost # for local people</title>
<path fill="none" stroke="#000000" d="M155.4578,-575.8314C152.75,-565 149.3219,-551.2876 146.6033,-540.4133"/>
</g>
<!-- rate.sx # Command line crypto ticker -->
<g id="node4" class="node">
<title>rate.sx # Command line crypto ticker</title>
<path fill="#ff0000" stroke="#ffffff" d="M459,-396C459,-396 199,-396 199,-396 193,-396 187,-390 187,-384 187,-384 187,-372 187,-372 187,-366 193,-360 199,-360 199,-360 459,-360 459,-360 465,-360 471,-366 471,-372 471,-372 471,-384 471,-384 471,-390 465,-396 459,-396"/>
<text text-anchor="middle" x="329" y="-374.3" font-family="Helvetica,sans-Serif" font-size="14.00" fill="#ffffff">rate.sx # Command line crypto ticker</text>
</g>
<!-- ex9k1.dc7.fsn1.hetzner.com&#45;&#45;ex9k1.dc7.fsn1.hetzner.com -->
<g id="edge4" class="edge">
<title>ex9k1.dc7.fsn1.hetzner.com&#45;&#45;ex9k1.dc7.fsn1.hetzner.com</title>
<path fill="none" stroke="#000000" d="M454.291,-605.0075C465.1154,-602.802 472,-599.1328 472,-594 472,-588.8672 465.1154,-585.198 454.291,-582.9925"/>
</g>
<!-- b6.xgu.ru -->
<g id="node6" class="node">
<title>b6.xgu.ru</title>
<path fill="#d3d3d3" stroke="#ffffff" d="M375.5,-540C375.5,-540 314.5,-540 314.5,-540 308.5,-540 302.5,-534 302.5,-528 302.5,-528 302.5,-516 302.5,-516 302.5,-510 308.5,-504 314.5,-504 314.5,-504 375.5,-504 375.5,-504 381.5,-504 387.5,-510 387.5,-516 387.5,-516 387.5,-528 387.5,-528 387.5,-534 381.5,-540 375.5,-540"/>
<text text-anchor="middle" x="345" y="-518.3" font-family="Helvetica,sans-Serif" font-size="14.00" fill="#000000">b6.xgu.ru</text>
</g>
<!-- ex9k1.dc7.fsn1.hetzner.com&#45;&#45;b6.xgu.ru -->
<g id="edge5" class="edge">
<title>ex9k1.dc7.fsn1.hetzner.com&#45;&#45;b6.xgu.ru</title>
<path fill="none" stroke="#000000" d="M345,-575.8314C345,-565 345,-551.2876 345,-540.4133"/>
</g>
<!-- cheat.sh -->
<g id="node7" class="node">
<title>cheat.sh</title>
<path fill="#d3d3d3" stroke="#ffffff" d="M363.5,-468C363.5,-468 310.5,-468 310.5,-468 304.5,-468 298.5,-462 298.5,-456 298.5,-456 298.5,-444 298.5,-444 298.5,-438 304.5,-432 310.5,-432 310.5,-432 363.5,-432 363.5,-432 369.5,-432 375.5,-438 375.5,-444 375.5,-444 375.5,-456 375.5,-456 375.5,-462 369.5,-468 363.5,-468"/>
<text text-anchor="middle" x="337" y="-446.3" font-family="Helvetica,sans-Serif" font-size="14.00" fill="#000000">cheat.sh</text>
</g>
<!-- b6.xgu.ru&#45;&#45;cheat.sh -->
<g id="edge6" class="edge">
<title>b6.xgu.ru&#45;&#45;cheat.sh</title>
<path fill="none" stroke="#000000" d="M342.9813,-503.8314C341.7778,-493 340.2542,-479.2876 339.0459,-468.4133"/>
</g>
<!-- cheat.sh&#45;&#45;rate.sx # Command line crypto ticker -->
<g id="edge7" class="edge">
<title>cheat.sh&#45;&#45;rate.sx # Command line crypto ticker</title>
<path fill="none" stroke="#000000" d="M334.9813,-431.8314C333.7778,-421 332.2542,-407.2876 331.0459,-396.4133"/>
</g>
<!-- fixer.io # Fiat currencies -->
<g id="node8" class="node">
<title>fixer.io # Fiat currencies</title>
<path fill="#ff0000" stroke="#ffffff" d="M722.5,-36C722.5,-36 557.5,-36 557.5,-36 551.5,-36 545.5,-30 545.5,-24 545.5,-24 545.5,-12 545.5,-12 545.5,-6 551.5,0 557.5,0 557.5,0 722.5,0 722.5,0 728.5,0 734.5,-6 734.5,-12 734.5,-12 734.5,-24 734.5,-24 734.5,-30 728.5,-36 722.5,-36"/>
<text text-anchor="middle" x="640" y="-14.3" font-family="Helvetica,sans-Serif" font-size="14.00" fill="#ffffff">fixer.io # Fiat currencies</text>
</g>
<!-- ae0.cbs01.tg01.lon01.networklayer.com&#45;&#45;ae0.cbs01.tg01.lon01.networklayer.com -->
<g id="edge9" class="edge">
<title>ae0.cbs01.tg01.lon01.networklayer.com&#45;&#45;ae0.cbs01.tg01.lon01.networklayer.com</title>
<path fill="none" stroke="#000000" d="M794.2082,-603.9649C805.2448,-601.7162 812,-598.3945 812,-594 812,-589.6055 805.2448,-586.2838 794.2082,-584.0351"/>
</g>
<!-- ae7.cbs02.eq01.chi01.networklayer.com -->
<g id="node10" class="node">
<title>ae7.cbs02.eq01.chi01.networklayer.com</title>
<path fill="#d3d3d3" stroke="#ffffff" d="M783,-540C783,-540 501,-540 501,-540 495,-540 489,-534 489,-528 489,-528 489,-516 489,-516 489,-510 495,-504 501,-504 501,-504 783,-504 783,-504 789,-504 795,-510 795,-516 795,-516 795,-528 795,-528 795,-534 789,-540 783,-540"/>
<text text-anchor="middle" x="642" y="-518.3" font-family="Helvetica,sans-Serif" font-size="14.00" fill="#000000">ae7.cbs02.eq01.chi01.networklayer.com</text>
</g>
<!-- ae0.cbs01.tg01.lon01.networklayer.com&#45;&#45;ae7.cbs02.eq01.chi01.networklayer.com -->
<g id="edge10" class="edge">
<title>ae0.cbs01.tg01.lon01.networklayer.com&#45;&#45;ae7.cbs02.eq01.chi01.networklayer.com</title>
<path fill="none" stroke="#000000" d="M642,-575.8314C642,-565 642,-551.2876 642,-540.4133"/>
</g>
<!-- ae0.cbs02.cs01.den01.networklayer.com -->
<g id="node11" class="node">
<title>ae0.cbs02.cs01.den01.networklayer.com</title>
<path fill="#d3d3d3" stroke="#ffffff" d="M785,-468C785,-468 499,-468 499,-468 493,-468 487,-462 487,-456 487,-456 487,-444 487,-444 487,-438 493,-432 499,-432 499,-432 785,-432 785,-432 791,-432 797,-438 797,-444 797,-444 797,-456 797,-456 797,-462 791,-468 785,-468"/>
<text text-anchor="middle" x="642" y="-446.3" font-family="Helvetica,sans-Serif" font-size="14.00" fill="#000000">ae0.cbs02.cs01.den01.networklayer.com</text>
</g>
<!-- ae7.cbs02.eq01.chi01.networklayer.com&#45;&#45;ae0.cbs02.cs01.den01.networklayer.com -->
<g id="edge11" class="edge">
<title>ae7.cbs02.eq01.chi01.networklayer.com&#45;&#45;ae0.cbs02.cs01.den01.networklayer.com</title>
<path fill="none" stroke="#000000" d="M642,-503.8314C642,-493 642,-479.2876 642,-468.4133"/>
</g>
<!-- ae1.cbs01.eq01.sjc02.networklayer.com -->
<g id="node12" class="node">
<title>ae1.cbs01.eq01.sjc02.networklayer.com</title>
<path fill="#d3d3d3" stroke="#ffffff" d="M782.5,-396C782.5,-396 501.5,-396 501.5,-396 495.5,-396 489.5,-390 489.5,-384 489.5,-384 489.5,-372 489.5,-372 489.5,-366 495.5,-360 501.5,-360 501.5,-360 782.5,-360 782.5,-360 788.5,-360 794.5,-366 794.5,-372 794.5,-372 794.5,-384 794.5,-384 794.5,-390 788.5,-396 782.5,-396"/>
<text text-anchor="middle" x="642" y="-374.3" font-family="Helvetica,sans-Serif" font-size="14.00" fill="#000000">ae1.cbs01.eq01.sjc02.networklayer.com</text>
</g>
<!-- ae0.cbs02.cs01.den01.networklayer.com&#45;&#45;ae1.cbs01.eq01.sjc02.networklayer.com -->
<g id="edge12" class="edge">
<title>ae0.cbs02.cs01.den01.networklayer.com&#45;&#45;ae1.cbs01.eq01.sjc02.networklayer.com</title>
<path fill="none" stroke="#000000" d="M642,-431.8314C642,-421 642,-407.2876 642,-396.4133"/>
</g>
<!-- ae23.bbr02.eq01.sjc02.networklayer.com -->
<g id="node13" class="node">
<title>ae23.bbr02.eq01.sjc02.networklayer.com</title>
<path fill="#d3d3d3" stroke="#ffffff" d="M785,-324C785,-324 495,-324 495,-324 489,-324 483,-318 483,-312 483,-312 483,-300 483,-300 483,-294 489,-288 495,-288 495,-288 785,-288 785,-288 791,-288 797,-294 797,-300 797,-300 797,-312 797,-312 797,-318 791,-324 785,-324"/>
<text text-anchor="middle" x="640" y="-302.3" font-family="Helvetica,sans-Serif" font-size="14.00" fill="#000000">ae23.bbr02.eq01.sjc02.networklayer.com</text>
</g>
<!-- ae1.cbs01.eq01.sjc02.networklayer.com&#45;&#45;ae23.bbr02.eq01.sjc02.networklayer.com -->
<g id="edge13" class="edge">
<title>ae1.cbs01.eq01.sjc02.networklayer.com&#45;&#45;ae23.bbr02.eq01.sjc02.networklayer.com</title>
<path fill="none" stroke="#000000" d="M641.4953,-359.8314C641.1944,-349 640.8135,-335.2876 640.5115,-324.4133"/>
</g>
<!-- ae6.dar01.sjc01.networklayer.com -->
<g id="node14" class="node">
<title>ae6.dar01.sjc01.networklayer.com</title>
<path fill="#d3d3d3" stroke="#ffffff" d="M760,-252C760,-252 520,-252 520,-252 514,-252 508,-246 508,-240 508,-240 508,-228 508,-228 508,-222 514,-216 520,-216 520,-216 760,-216 760,-216 766,-216 772,-222 772,-228 772,-228 772,-240 772,-240 772,-246 766,-252 760,-252"/>
<text text-anchor="middle" x="640" y="-230.3" font-family="Helvetica,sans-Serif" font-size="14.00" fill="#000000">ae6.dar01.sjc01.networklayer.com</text>
</g>
<!-- ae23.bbr02.eq01.sjc02.networklayer.com&#45;&#45;ae6.dar01.sjc01.networklayer.com -->
<g id="edge14" class="edge">
<title>ae23.bbr02.eq01.sjc02.networklayer.com&#45;&#45;ae6.dar01.sjc01.networklayer.com</title>
<path fill="none" stroke="#000000" d="M640,-287.8314C640,-277 640,-263.2876 640,-252.4133"/>
</g>
<!-- a1.76.1732.ip4.static.sl&#45;reverse.com -->
<g id="node15" class="node">
<title>a1.76.1732.ip4.static.sl&#45;reverse.com</title>
<path fill="#d3d3d3" stroke="#ffffff" d="M767,-180C767,-180 513,-180 513,-180 507,-180 501,-174 501,-168 501,-168 501,-156 501,-156 501,-150 507,-144 513,-144 513,-144 767,-144 767,-144 773,-144 779,-150 779,-156 779,-156 779,-168 779,-168 779,-174 773,-180 767,-180"/>
<text text-anchor="middle" x="640" y="-158.3" font-family="Helvetica,sans-Serif" font-size="14.00" fill="#000000">a1.76.1732.ip4.static.sl&#45;reverse.com</text>
</g>
<!-- ae6.dar01.sjc01.networklayer.com&#45;&#45;a1.76.1732.ip4.static.sl&#45;reverse.com -->
<g id="edge15" class="edge">
<title>ae6.dar01.sjc01.networklayer.com&#45;&#45;a1.76.1732.ip4.static.sl&#45;reverse.com</title>
<path fill="none" stroke="#000000" d="M640,-215.8314C640,-205 640,-191.2876 640,-180.4133"/>
</g>
<!-- e6.d1.0bc6.ip4.static.sl&#45;reverse.com -->
<g id="node16" class="node">
<title>e6.d1.0bc6.ip4.static.sl&#45;reverse.com</title>
<path fill="#d3d3d3" stroke="#ffffff" d="M766,-108C766,-108 514,-108 514,-108 508,-108 502,-102 502,-96 502,-96 502,-84 502,-84 502,-78 508,-72 514,-72 514,-72 766,-72 766,-72 772,-72 778,-78 778,-84 778,-84 778,-96 778,-96 778,-102 772,-108 766,-108"/>
<text text-anchor="middle" x="640" y="-86.3" font-family="Helvetica,sans-Serif" font-size="14.00" fill="#000000">e6.d1.0bc6.ip4.static.sl&#45;reverse.com</text>
</g>
<!-- a1.76.1732.ip4.static.sl&#45;reverse.com&#45;&#45;e6.d1.0bc6.ip4.static.sl&#45;reverse.com -->
<g id="edge16" class="edge">
<title>a1.76.1732.ip4.static.sl&#45;reverse.com&#45;&#45;e6.d1.0bc6.ip4.static.sl&#45;reverse.com</title>
<path fill="none" stroke="#000000" d="M640,-143.8314C640,-133 640,-119.2876 640,-108.4133"/>
</g>
<!-- e6.d1.0bc6.ip4.static.sl&#45;reverse.com&#45;&#45;fixer.io # Fiat currencies -->
<g id="edge17" class="edge">
<title>e6.d1.0bc6.ip4.static.sl&#45;reverse.com&#45;&#45;fixer.io # Fiat currencies</title>
<path fill="none" stroke="#000000" d="M640,-71.8314C640,-61 640,-47.2876 640,-36.4133"/>
</g>
<!-- turpin.dev # My website -->
<g id="node17" class="node">
<title>turpin.dev # My website</title>
<path fill="#ff0000" stroke="#ffffff" d="M994.5,-324C994.5,-324 827.5,-324 827.5,-324 821.5,-324 815.5,-318 815.5,-312 815.5,-312 815.5,-300 815.5,-300 815.5,-294 821.5,-288 827.5,-288 827.5,-288 994.5,-288 994.5,-288 1000.5,-288 1006.5,-294 1006.5,-300 1006.5,-300 1006.5,-312 1006.5,-312 1006.5,-318 1000.5,-324 994.5,-324"/>
<text text-anchor="middle" x="911" y="-302.3" font-family="Helvetica,sans-Serif" font-size="14.00" fill="#ffffff">turpin.dev # My website</text>
</g>
<!-- 209.85.247.5 -->
<g id="node19" class="node">
<title>209.85.247.5</title>
<path fill="#d3d3d3" stroke="#ffffff" d="M939.5,-540C939.5,-540 852.5,-540 852.5,-540 846.5,-540 840.5,-534 840.5,-528 840.5,-528 840.5,-516 840.5,-516 840.5,-510 846.5,-504 852.5,-504 852.5,-504 939.5,-504 939.5,-504 945.5,-504 951.5,-510 951.5,-516 951.5,-516 951.5,-528 951.5,-528 951.5,-534 945.5,-540 939.5,-540"/>
<text text-anchor="middle" x="896" y="-518.3" font-family="Helvetica,sans-Serif" font-size="14.00" fill="#000000">209.85.247.5</text>
</g>
<!-- 209.85.143.103&#45;&#45;209.85.247.5 -->
<g id="edge19" class="edge">
<title>209.85.143.103&#45;&#45;209.85.247.5</title>
<path fill="none" stroke="#000000" d="M895.2523,-575.8314C895.4028,-565 895.5932,-551.2876 895.7443,-540.4133"/>
</g>
<!-- 216.239.42.191 -->
<g id="node20" class="node">
<title>216.239.42.191</title>
<path fill="#d3d3d3" stroke="#ffffff" d="M950.5,-468C950.5,-468 845.5,-468 845.5,-468 839.5,-468 833.5,-462 833.5,-456 833.5,-456 833.5,-444 833.5,-444 833.5,-438 839.5,-432 845.5,-432 845.5,-432 950.5,-432 950.5,-432 956.5,-432 962.5,-438 962.5,-444 962.5,-444 962.5,-456 962.5,-456 962.5,-462 956.5,-468 950.5,-468"/>
<text text-anchor="middle" x="898" y="-446.3" font-family="Helvetica,sans-Serif" font-size="14.00" fill="#000000">216.239.42.191</text>
</g>
<!-- 209.85.247.5&#45;&#45;216.239.42.191 -->
<g id="edge20" class="edge">
<title>209.85.247.5&#45;&#45;216.239.42.191</title>
<path fill="none" stroke="#000000" d="M896.5047,-503.8314C896.8056,-493 897.1865,-479.2876 897.4885,-468.4133"/>
</g>
<!-- 216.239.56.243 -->
<g id="node21" class="node">
<title>216.239.56.243</title>
<path fill="#d3d3d3" stroke="#ffffff" d="M954.5,-396C954.5,-396 849.5,-396 849.5,-396 843.5,-396 837.5,-390 837.5,-384 837.5,-384 837.5,-372 837.5,-372 837.5,-366 843.5,-360 849.5,-360 849.5,-360 954.5,-360 954.5,-360 960.5,-360 966.5,-366 966.5,-372 966.5,-372 966.5,-384 966.5,-384 966.5,-390 960.5,-396 954.5,-396"/>
<text text-anchor="middle" x="902" y="-374.3" font-family="Helvetica,sans-Serif" font-size="14.00" fill="#000000">216.239.56.243</text>
</g>
<!-- 216.239.42.191&#45;&#45;216.239.56.243 -->
<g id="edge21" class="edge">
<title>216.239.42.191&#45;&#45;216.239.56.243</title>
<path fill="none" stroke="#000000" d="M899.0094,-431.8314C899.6111,-421 900.3729,-407.2876 900.977,-396.4133"/>
</g>
<!-- 216.239.56.243&#45;&#45;turpin.dev # My website -->
<g id="edge22" class="edge">
<title>216.239.56.243&#45;&#45;turpin.dev # My website</title>
<path fill="none" stroke="#000000" d="M904.2711,-359.8314C905.625,-349 907.3391,-335.2876 908.6983,-324.4133"/>
</g>
<!-- 7thsensedesign.com -->
<g id="node23" class="node">
<title>7thsensedesign.com</title>
<path fill="#ff0000" stroke="#ffffff" d="M1438,-252C1438,-252 1298,-252 1298,-252 1292,-252 1286,-246 1286,-240 1286,-240 1286,-228 1286,-228 1286,-222 1292,-216 1298,-216 1298,-216 1438,-216 1438,-216 1444,-216 1450,-222 1450,-228 1450,-228 1450,-240 1450,-240 1450,-246 1444,-252 1438,-252"/>
<text text-anchor="middle" x="1368" y="-230.3" font-family="Helvetica,sans-Serif" font-size="14.00" fill="#ffffff">7thsensedesign.com</text>
</g>
<!-- ae0.cr&#45;merak.lon5.bb.godaddy.com&#45;&#45;ae0.cr&#45;merak.lon5.bb.godaddy.com -->
<g id="edge25" class="edge">
<title>ae0.cr&#45;merak.lon5.bb.godaddy.com&#45;&#45;ae0.cr&#45;merak.lon5.bb.godaddy.com</title>
<path fill="none" stroke="#000000" d="M1503.0335,-604.3835C1514.1172,-602.137 1521,-598.6758 1521,-594 1521,-589.3242 1514.1172,-585.863 1503.0335,-583.6165"/>
</g>
<!-- ae1.dr&#45;master.ld5.core.webfusion.com -->
<g id="node25" class="node">
<title>ae1.dr&#45;master.ld5.core.webfusion.com</title>
<path fill="#d3d3d3" stroke="#ffffff" d="M1502.5,-540C1502.5,-540 1233.5,-540 1233.5,-540 1227.5,-540 1221.5,-534 1221.5,-528 1221.5,-528 1221.5,-516 1221.5,-516 1221.5,-510 1227.5,-504 1233.5,-504 1233.5,-504 1502.5,-504 1502.5,-504 1508.5,-504 1514.5,-510 1514.5,-516 1514.5,-516 1514.5,-528 1514.5,-528 1514.5,-534 1508.5,-540 1502.5,-540"/>
<text text-anchor="middle" x="1368" y="-518.3" font-family="Helvetica,sans-Serif" font-size="14.00" fill="#000000">ae1.dr&#45;master.ld5.core.webfusion.com</text>
</g>
<!-- ae0.cr&#45;merak.lon5.bb.godaddy.com&#45;&#45;ae1.dr&#45;master.ld5.core.webfusion.com -->
<g id="edge26" class="edge">
<title>ae0.cr&#45;merak.lon5.bb.godaddy.com&#45;&#45;ae1.dr&#45;master.ld5.core.webfusion.com</title>
<path fill="none" stroke="#000000" d="M1368,-575.8314C1368,-565 1368,-551.2876 1368,-540.4133"/>
</g>
<!-- 62.138.48.34 -->
<g id="node26" class="node">
<title>62.138.48.34</title>
<path fill="#d3d3d3" stroke="#ffffff" d="M1411.5,-468C1411.5,-468 1324.5,-468 1324.5,-468 1318.5,-468 1312.5,-462 1312.5,-456 1312.5,-456 1312.5,-444 1312.5,-444 1312.5,-438 1318.5,-432 1324.5,-432 1324.5,-432 1411.5,-432 1411.5,-432 1417.5,-432 1423.5,-438 1423.5,-444 1423.5,-444 1423.5,-456 1423.5,-456 1423.5,-462 1417.5,-468 1411.5,-468"/>
<text text-anchor="middle" x="1368" y="-446.3" font-family="Helvetica,sans-Serif" font-size="14.00" fill="#000000">62.138.48.34</text>
</g>
<!-- ae1.dr&#45;master.ld5.core.webfusion.com&#45;&#45;62.138.48.34 -->
<g id="edge27" class="edge">
<title>ae1.dr&#45;master.ld5.core.webfusion.com&#45;&#45;62.138.48.34</title>
<path fill="none" stroke="#000000" d="M1368,-503.8314C1368,-493 1368,-479.2876 1368,-468.4133"/>
</g>
<!-- ldc5&#45;ldc4.core.webfusion.com -->
<g id="node27" class="node">
<title>ldc5&#45;ldc4.core.webfusion.com</title>
<path fill="#d3d3d3" stroke="#ffffff" d="M1471,-396C1471,-396 1265,-396 1265,-396 1259,-396 1253,-390 1253,-384 1253,-384 1253,-372 1253,-372 1253,-366 1259,-360 1265,-360 1265,-360 1471,-360 1471,-360 1477,-360 1483,-366 1483,-372 1483,-372 1483,-384 1483,-384 1483,-390 1477,-396 1471,-396"/>
<text text-anchor="middle" x="1368" y="-374.3" font-family="Helvetica,sans-Serif" font-size="14.00" fill="#000000">ldc5&#45;ldc4.core.webfusion.com</text>
</g>
<!-- 62.138.48.34&#45;&#45;ldc5&#45;ldc4.core.webfusion.com -->
<g id="edge28" class="edge">
<title>62.138.48.34&#45;&#45;ldc5&#45;ldc4.core.webfusion.com</title>
<path fill="none" stroke="#000000" d="M1368,-431.8314C1368,-421 1368,-407.2876 1368,-396.4133"/>
</g>
<!-- ds8722.dedicated.turbodns.co.uk -->
<g id="node28" class="node">
<title>ds8722.dedicated.turbodns.co.uk</title>
<path fill="#d3d3d3" stroke="#ffffff" d="M1483.5,-324C1483.5,-324 1252.5,-324 1252.5,-324 1246.5,-324 1240.5,-318 1240.5,-312 1240.5,-312 1240.5,-300 1240.5,-300 1240.5,-294 1246.5,-288 1252.5,-288 1252.5,-288 1483.5,-288 1483.5,-288 1489.5,-288 1495.5,-294 1495.5,-300 1495.5,-300 1495.5,-312 1495.5,-312 1495.5,-318 1489.5,-324 1483.5,-324"/>
<text text-anchor="middle" x="1368" y="-302.3" font-family="Helvetica,sans-Serif" font-size="14.00" fill="#000000">ds8722.dedicated.turbodns.co.uk</text>
</g>
<!-- ldc5&#45;ldc4.core.webfusion.com&#45;&#45;ds8722.dedicated.turbodns.co.uk -->
<g id="edge29" class="edge">
<title>ldc5&#45;ldc4.core.webfusion.com&#45;&#45;ds8722.dedicated.turbodns.co.uk</title>
<path fill="none" stroke="#000000" d="M1368,-359.8314C1368,-349 1368,-335.2876 1368,-324.4133"/>
</g>
<!-- ds8722.dedicated.turbodns.co.uk&#45;&#45;7thsensedesign.com -->
<g id="edge30" class="edge">
<title>ds8722.dedicated.turbodns.co.uk&#45;&#45;7thsensedesign.com</title>
<path fill="none" stroke="#000000" d="M1368,-287.8314C1368,-277 1368,-263.2876 1368,-252.4133"/>
</g>
</g>
</svg>
