<?xml version="1.0" encoding="UTF-8" standalone="no"?>
<!DOCTYPE svg PUBLIC "-//W3C//DTD SVG 1.1//EN"
 "http://www.w3.org/Graphics/SVG/1.1/DTD/svg11.dtd">
<!-- Generated by graphviz version 2.40.1 (20161225.0304)
 -->
<!-- Title: %3 Pages: 1 -->
<svg width="975pt" height="427pt"
 viewBox="0.00 0.00 975.00 427.00" xmlns="http://www.w3.org/2000/svg" xmlns:xlink="http://www.w3.org/1999/xlink">
<g id="graph0" class="graph" transform="scale(1 1) rotate(0) translate(4 423)">
<title>%3</title>
<polygon fill="#ffffff" stroke="transparent" points="-4,4 -4,-423 971,-423 971,4 -4,4"/>
<text text-anchor="middle" x="147.5" y="-403.8" font-family="Helvetica,sans-Serif" font-size="14.00" fill="#000000">./hosts2dot.sh &#45; Fri 23 Aug 13:41:49 BST 2019</text>
<!-- soy_yo -->
<g id="node1" class="node">
<title>soy_yo</title>
<path fill="#d3d3d3" stroke="#ffffff" d="M426.5,-396C426.5,-396 396.5,-396 396.5,-396 390.5,-396 384.5,-390 384.5,-384 384.5,-384 384.5,-372 384.5,-372 384.5,-366 390.5,-360 396.5,-360 396.5,-360 426.5,-360 426.5,-360 432.5,-360 438.5,-366 438.5,-372 438.5,-372 438.5,-384 438.5,-384 438.5,-390 432.5,-396 426.5,-396"/>
<text text-anchor="middle" x="411.5" y="-374.3" font-family="Helvetica,sans-Serif" font-size="14.00" fill="#000000">laptop</text>
</g>
<!-- localhost -->
<g id="node3" class="node">
<title>localhost</title>
<path fill="#d3d3d3" stroke="#ffffff" d="M342.5,-324C342.5,-324 296.5,-324 296.5,-324 290.5,-324 284.5,-318 284.5,-312 284.5,-312 284.5,-300 284.5,-300 284.5,-294 290.5,-288 296.5,-288 296.5,-288 342.5,-288 342.5,-288 348.5,-288 354.5,-294 354.5,-300 354.5,-300 354.5,-312 354.5,-312 354.5,-318 348.5,-324 342.5,-324"/>
<text text-anchor="middle" x="319.5" y="-302.3" font-family="Helvetica,sans-Serif" font-size="14.00" fill="#000000">localhost</text>
</g>
<!-- soy_yo&#45;&#45;localhost -->
<g id="edge1" class="edge">
<title>soy_yo&#45;&#45;localhost</title>
<path fill="none" stroke="#000000" d="M388.2845,-359.8314C374.338,-348.9167 356.6532,-335.0764 342.7081,-324.1628"/>
</g>
<!-- 2a01:4c8:43f:b8a5:a419:11bc:c6cd:6b2a -->
<g id="node5" class="node">
<title>2a01:4c8:43f:b8a5:a419:11bc:c6cd:6b2a</title>
<path fill="#d3d3d3" stroke="#ffffff" d="M627,-324C627,-324 390,-324 390,-324 384,-324 378,-318 378,-312 378,-312 378,-300 378,-300 378,-294 384,-288 390,-288 390,-288 627,-288 627,-288 633,-288 639,-294 639,-300 639,-300 639,-312 639,-312 639,-318 633,-324 627,-324"/>
<text text-anchor="middle" x="508.5" y="-302.3" font-family="Helvetica,sans-Serif" font-size="14.00" fill="#000000">2a01:4c8:43f:b8a5:a419:11bc:c6cd:6b2a</text>
</g>
<!-- soy_yo&#45;&#45;2a01:4c8:43f:b8a5:a419:11bc:c6cd:6b2a -->
<g id="edge3" class="edge">
<title>soy_yo&#45;&#45;2a01:4c8:43f:b8a5:a419:11bc:c6cd:6b2a</title>
<path fill="none" stroke="#000000" d="M435.9772,-359.8314C450.6817,-348.9167 469.3276,-335.0764 484.0306,-324.1628"/>
</g>
<!-- 127.0.0.1 localhost # for local people -->
<g id="node2" class="node">
<title>127.0.0.1 localhost # for local people</title>
<path fill="#00ff00" stroke="#ffffff" d="M415.5,-252C415.5,-252 203.5,-252 203.5,-252 197.5,-252 191.5,-246 191.5,-240 191.5,-240 191.5,-228 191.5,-228 191.5,-222 197.5,-216 203.5,-216 203.5,-216 415.5,-216 415.5,-216 421.5,-216 427.5,-222 427.5,-228 427.5,-228 427.5,-240 427.5,-240 427.5,-246 421.5,-252 415.5,-252"/>
<text text-anchor="middle" x="309.5" y="-230.3" font-family="Helvetica,sans-Serif" font-size="14.00" fill="#ffffff">127.0.0.1 localhost # for local people</text>
</g>
<!-- localhost&#45;&#45;127.0.0.1 localhost # for local people -->
<g id="edge2" class="edge">
<title>localhost&#45;&#45;127.0.0.1 localhost # for local people</title>
<path fill="none" stroke="#000000" d="M316.9766,-287.8314C315.4722,-277 313.5677,-263.2876 312.0574,-252.4133"/>
</g>
<!-- rate.sx # Command line crypto ticker -->
<g id="node4" class="node">
<title>rate.sx # Command line crypto ticker</title>
<path fill="#ff0000" stroke="#ffffff" d="M225,-36C225,-36 12,-36 12,-36 6,-36 0,-30 0,-24 0,-24 0,-12 0,-12 0,-6 6,0 12,0 12,0 225,0 225,0 231,0 237,-6 237,-12 237,-12 237,-24 237,-24 237,-30 231,-36 225,-36"/>
<text text-anchor="middle" x="118.5" y="-14.3" font-family="Helvetica,sans-Serif" font-size="14.00" fill="#ffffff">rate.sx # Command line crypto ticker</text>
</g>
<!-- 2a01:4c8:43f:b8a5:a419:11bc:c6cd:6b2a&#45;&#45;2a01:4c8:43f:b8a5:a419:11bc:c6cd:6b2a -->
<g id="edge4" class="edge">
<title>2a01:4c8:43f:b8a5:a419:11bc:c6cd:6b2a&#45;&#45;2a01:4c8:43f:b8a5:a419:11bc:c6cd:6b2a</title>
<path fill="none" stroke="#000000" d="M639.3186,-316.434C650.2188,-314.1889 657,-310.7109 657,-306 657,-301.2891 650.2188,-297.8111 639.3186,-295.566"/>
</g>
<!-- 2a01:4c8:f800:c38:: -->
<g id="node6" class="node">
<title>2a01:4c8:f800:c38::</title>
<path fill="#d3d3d3" stroke="#ffffff" d="M569,-252C569,-252 458,-252 458,-252 452,-252 446,-246 446,-240 446,-240 446,-228 446,-228 446,-222 452,-216 458,-216 458,-216 569,-216 569,-216 575,-216 581,-222 581,-228 581,-228 581,-240 581,-240 581,-246 575,-252 569,-252"/>
<text text-anchor="middle" x="513.5" y="-230.3" font-family="Helvetica,sans-Serif" font-size="14.00" fill="#000000">2a01:4c8:f800:c38::</text>
</g>
<!-- 2a01:4c8:43f:b8a5:a419:11bc:c6cd:6b2a&#45;&#45;2a01:4c8:f800:c38:: -->
<g id="edge5" class="edge">
<title>2a01:4c8:43f:b8a5:a419:11bc:c6cd:6b2a&#45;&#45;2a01:4c8:f800:c38::</title>
<path fill="none" stroke="#000000" d="M509.7617,-287.8314C510.5139,-277 511.4661,-263.2876 512.2213,-252.4133"/>
</g>
<!-- 2a01:4c8:f800:c4b::3 -->
<g id="node7" class="node">
<title>2a01:4c8:f800:c4b::3</title>
<path fill="#d3d3d3" stroke="#ffffff" d="M573,-180C573,-180 454,-180 454,-180 448,-180 442,-174 442,-168 442,-168 442,-156 442,-156 442,-150 448,-144 454,-144 454,-144 573,-144 573,-144 579,-144 585,-150 585,-156 585,-156 585,-168 585,-168 585,-174 579,-180 573,-180"/>
<text text-anchor="middle" x="513.5" y="-158.3" font-family="Helvetica,sans-Serif" font-size="14.00" fill="#000000">2a01:4c8:f800:c4b::3</text>
</g>
<!-- 2a01:4c8:f800:c38::&#45;&#45;2a01:4c8:f800:c4b::3 -->
<g id="edge6" class="edge">
<title>2a01:4c8:f800:c38::&#45;&#45;2a01:4c8:f800:c4b::3</title>
<path fill="none" stroke="#000000" d="M513.5,-215.8314C513.5,-205 513.5,-191.2876 513.5,-180.4133"/>
</g>
<!-- 2a01:4c8:f800:c06::2 -->
<g id="node8" class="node">
<title>2a01:4c8:f800:c06::2</title>
<path fill="#d3d3d3" stroke="#ffffff" d="M573,-108C573,-108 454,-108 454,-108 448,-108 442,-102 442,-96 442,-96 442,-84 442,-84 442,-78 448,-72 454,-72 454,-72 573,-72 573,-72 579,-72 585,-78 585,-84 585,-84 585,-96 585,-96 585,-102 579,-108 573,-108"/>
<text text-anchor="middle" x="513.5" y="-86.3" font-family="Helvetica,sans-Serif" font-size="14.00" fill="#000000">2a01:4c8:f800:c06::2</text>
</g>
<!-- 2a01:4c8:f800:c4b::3&#45;&#45;2a01:4c8:f800:c06::2 -->
<g id="edge7" class="edge">
<title>2a01:4c8:f800:c4b::3&#45;&#45;2a01:4c8:f800:c06::2</title>
<path fill="none" stroke="#000000" d="M513.5,-143.8314C513.5,-133 513.5,-119.2876 513.5,-108.4133"/>
</g>
<!-- 2a01:4c8:f800:c06::2&#45;&#45;rate.sx # Command line crypto ticker -->
<g id="edge8" class="edge">
<title>2a01:4c8:f800:c06::2&#45;&#45;rate.sx # Command line crypto ticker</title>
<path fill="none" stroke="#000000" d="M441.9685,-76.9613C379.1629,-65.5132 287.1886,-48.7483 217.354,-36.019"/>
</g>
<!-- fixer.io # Fiat currencies -->
<g id="node9" class="node">
<title>fixer.io # Fiat currencies</title>
<path fill="#ff0000" stroke="#ffffff" d="M403.5,-36C403.5,-36 267.5,-36 267.5,-36 261.5,-36 255.5,-30 255.5,-24 255.5,-24 255.5,-12 255.5,-12 255.5,-6 261.5,0 267.5,0 267.5,0 403.5,0 403.5,0 409.5,0 415.5,-6 415.5,-12 415.5,-12 415.5,-24 415.5,-24 415.5,-30 409.5,-36 403.5,-36"/>
<text text-anchor="middle" x="335.5" y="-14.3" font-family="Helvetica,sans-Serif" font-size="14.00" fill="#ffffff">fixer.io # Fiat currencies</text>
</g>
<!-- 2a01:4c8:f800:c06::2&#45;&#45;fixer.io # Fiat currencies -->
<g id="edge9" class="edge">
<title>2a01:4c8:f800:c06::2&#45;&#45;fixer.io # Fiat currencies</title>
<path fill="none" stroke="#000000" d="M468.5831,-71.8314C441.4966,-60.875 407.1221,-46.9708 380.0939,-36.038"/>
</g>
<!-- turpin.dev # My website -->
<g id="node10" class="node">
<title>turpin.dev # My website</title>
<path fill="#ff0000" stroke="#ffffff" d="M581,-36C581,-36 446,-36 446,-36 440,-36 434,-30 434,-24 434,-24 434,-12 434,-12 434,-6 440,0 446,0 446,0 581,0 581,0 587,0 593,-6 593,-12 593,-12 593,-24 593,-24 593,-30 587,-36 581,-36"/>
<text text-anchor="middle" x="513.5" y="-14.3" font-family="Helvetica,sans-Serif" font-size="14.00" fill="#ffffff">turpin.dev # My website</text>
</g>
<!-- 2a01:4c8:f800:c06::2&#45;&#45;turpin.dev # My website -->
<g id="edge10" class="edge">
<title>2a01:4c8:f800:c06::2&#45;&#45;turpin.dev # My website</title>
<path fill="none" stroke="#000000" d="M513.5,-71.8314C513.5,-61 513.5,-47.2876 513.5,-36.4133"/>
</g>
<!-- brignull.com # Harry&#39;s website -->
<g id="node11" class="node">
<title>brignull.com # Harry&#39;s website</title>
<path fill="#00ff00" stroke="#ffffff" d="M796,-36C796,-36 623,-36 623,-36 617,-36 611,-30 611,-24 611,-24 611,-12 611,-12 611,-6 617,0 623,0 623,0 796,0 796,0 802,0 808,-6 808,-12 808,-12 808,-24 808,-24 808,-30 802,-36 796,-36"/>
<text text-anchor="middle" x="709.5" y="-14.3" font-family="Helvetica,sans-Serif" font-size="14.00" fill="#ffffff">brignull.com # Harry&#39;s website</text>
</g>
<!-- 2a01:4c8:f800:c06::2&#45;&#45;brignull.com # Harry&#39;s website -->
<g id="edge11" class="edge">
<title>2a01:4c8:f800:c06::2&#45;&#45;brignull.com # Harry&#39;s website</title>
<path fill="none" stroke="#000000" d="M562.7061,-71.9243C592.5294,-60.9688 630.4467,-47.04 660.2737,-36.0831"/>
</g>
<!-- 7thsensedesign.com -->
<g id="node12" class="node">
<title>7thsensedesign.com</title>
<path fill="#ff0000" stroke="#ffffff" d="M955,-36C955,-36 838,-36 838,-36 832,-36 826,-30 826,-24 826,-24 826,-12 826,-12 826,-6 832,0 838,0 838,0 955,0 955,0 961,0 967,-6 967,-12 967,-12 967,-24 967,-24 967,-30 961,-36 955,-36"/>
<text text-anchor="middle" x="896.5" y="-14.3" font-family="Helvetica,sans-Serif" font-size="14.00" fill="#ffffff">7thsensedesign.com</text>
</g>
<!-- 2a01:4c8:f800:c06::2&#45;&#45;7thsensedesign.com -->
<g id="edge12" class="edge">
<title>2a01:4c8:f800:c06::2&#45;&#45;7thsensedesign.com</title>
<path fill="none" stroke="#000000" d="M585.2424,-78.2597C646.9613,-67.9202 738.3014,-52.047 817.5,-36 820.2573,-35.4413 823.066,-34.8601 825.9012,-34.2632"/>
</g>
</g>
</svg>
