<?xml version="1.0" encoding="UTF-8" standalone="no"?>
<!DOCTYPE svg PUBLIC "-//W3C//DTD SVG 1.1//EN"
 "http://www.w3.org/Graphics/SVG/1.1/DTD/svg11.dtd">
<!-- Generated by graphviz version 2.40.1 (20161225.0304)
 -->
<!-- Title: %3 Pages: 1 -->
<svg width="1511pt" height="859pt"
 viewBox="0.00 0.00 1511.00 859.00" xmlns="http://www.w3.org/2000/svg" xmlns:xlink="http://www.w3.org/1999/xlink">
<g id="graph0" class="graph" transform="scale(1 1) rotate(0) translate(4 855)">
<title>%3</title>
<polygon fill="#ffffff" stroke="transparent" points="-4,4 -4,-855 1507,-855 1507,4 -4,4"/>
<text text-anchor="middle" x="176.5" y="-835.8" font-family="Helvetica,sans-Serif" font-size="14.00" fill="#000000">./hosts2dot.sh &#45; Thu Aug 22 13:55:13 BST 2019</text>
<!-- soy_yo -->
<g id="node1" class="node">
<title>soy_yo</title>
<path fill="#d3d3d3" stroke="#ffffff" d="M796,-828C796,-828 722,-828 722,-828 716,-828 710,-822 710,-816 710,-816 710,-804 710,-804 710,-798 716,-792 722,-792 722,-792 796,-792 796,-792 802,-792 808,-798 808,-804 808,-804 808,-816 808,-816 808,-822 802,-828 796,-828"/>
<text text-anchor="middle" x="759" y="-806.3" font-family="Helvetica,sans-Serif" font-size="14.00" fill="#000000">magnum&#45;ci</text>
</g>
<!-- localhost -->
<g id="node3" class="node">
<title>localhost</title>
<path fill="#d3d3d3" stroke="#ffffff" d="M188,-756C188,-756 132,-756 132,-756 126,-756 120,-750 120,-744 120,-744 120,-732 120,-732 120,-726 126,-720 132,-720 132,-720 188,-720 188,-720 194,-720 200,-726 200,-732 200,-732 200,-744 200,-744 200,-750 194,-756 188,-756"/>
<text text-anchor="middle" x="160" y="-734.3" font-family="Helvetica,sans-Serif" font-size="14.00" fill="#000000">localhost</text>
</g>
<!-- soy_yo&#45;&#45;localhost -->
<g id="edge1" class="edge">
<title>soy_yo&#45;&#45;localhost</title>
<path fill="none" stroke="#000000" d="M709.8511,-807.6648C615.557,-802.6002 402.9916,-788.354 227,-756 218.234,-754.3885 208.9376,-752.2046 200.1498,-749.9139"/>
</g>
<!-- ex9k1.dc7.fsn1.hetzner.com -->
<g id="node5" class="node">
<title>ex9k1.dc7.fsn1.hetzner.com</title>
<path fill="#d3d3d3" stroke="#ffffff" d="M442,-756C442,-756 248,-756 248,-756 242,-756 236,-750 236,-744 236,-744 236,-732 236,-732 236,-726 242,-720 248,-720 248,-720 442,-720 442,-720 448,-720 454,-726 454,-732 454,-732 454,-744 454,-744 454,-750 448,-756 442,-756"/>
<text text-anchor="middle" x="345" y="-734.3" font-family="Helvetica,sans-Serif" font-size="14.00" fill="#000000">ex9k1.dc7.fsn1.hetzner.com</text>
</g>
<!-- soy_yo&#45;&#45;ex9k1.dc7.fsn1.hetzner.com -->
<g id="edge3" class="edge">
<title>soy_yo&#45;&#45;ex9k1.dc7.fsn1.hetzner.com</title>
<path fill="none" stroke="#000000" d="M709.883,-801.4579C645.8408,-790.3201 532.159,-770.5494 448.6559,-756.0271"/>
</g>
<!-- ae0.cbs01.tg01.lon01.networklayer.com -->
<g id="node9" class="node">
<title>ae0.cbs01.tg01.lon01.networklayer.com</title>
<path fill="#d3d3d3" stroke="#ffffff" d="M782,-756C782,-756 502,-756 502,-756 496,-756 490,-750 490,-744 490,-744 490,-732 490,-732 490,-726 496,-720 502,-720 502,-720 782,-720 782,-720 788,-720 794,-726 794,-732 794,-732 794,-744 794,-744 794,-750 788,-756 782,-756"/>
<text text-anchor="middle" x="642" y="-734.3" font-family="Helvetica,sans-Serif" font-size="14.00" fill="#000000">ae0.cbs01.tg01.lon01.networklayer.com</text>
</g>
<!-- soy_yo&#45;&#45;ae0.cbs01.tg01.lon01.networklayer.com -->
<g id="edge8" class="edge">
<title>soy_yo&#45;&#45;ae0.cbs01.tg01.lon01.networklayer.com</title>
<path fill="none" stroke="#000000" d="M729.476,-791.8314C711.7396,-780.9167 689.2492,-767.0764 671.5146,-756.1628"/>
</g>
<!-- 209.85.143.103 -->
<g id="node20" class="node">
<title>209.85.143.103</title>
<path fill="#d3d3d3" stroke="#ffffff" d="M929.5,-756C929.5,-756 824.5,-756 824.5,-756 818.5,-756 812.5,-750 812.5,-744 812.5,-744 812.5,-732 812.5,-732 812.5,-726 818.5,-720 824.5,-720 824.5,-720 929.5,-720 929.5,-720 935.5,-720 941.5,-726 941.5,-732 941.5,-732 941.5,-744 941.5,-744 941.5,-750 935.5,-756 929.5,-756"/>
<text text-anchor="middle" x="877" y="-734.3" font-family="Helvetica,sans-Serif" font-size="14.00" fill="#000000">209.85.143.103</text>
</g>
<!-- soy_yo&#45;&#45;209.85.143.103 -->
<g id="edge19" class="edge">
<title>soy_yo&#45;&#45;209.85.143.103</title>
<path fill="none" stroke="#000000" d="M788.7764,-791.8314C806.6643,-780.9167 829.3469,-767.0764 847.2331,-756.1628"/>
</g>
<!-- brignull.com # Harry&#39;s website -->
<g id="node24" class="node">
<title>brignull.com # Harry&#39;s website</title>
<path fill="#ff0000" stroke="#ffffff" d="M1184.5,-756C1184.5,-756 971.5,-756 971.5,-756 965.5,-756 959.5,-750 959.5,-744 959.5,-744 959.5,-732 959.5,-732 959.5,-726 965.5,-720 971.5,-720 971.5,-720 1184.5,-720 1184.5,-720 1190.5,-720 1196.5,-726 1196.5,-732 1196.5,-732 1196.5,-744 1196.5,-744 1196.5,-750 1190.5,-756 1184.5,-756"/>
<text text-anchor="middle" x="1078" y="-734.3" font-family="Helvetica,sans-Serif" font-size="14.00" fill="#ffffff">brignull.com # Harry&#39;s website</text>
</g>
<!-- soy_yo&#45;&#45;brignull.com # Harry&#39;s website -->
<g id="edge24" class="edge">
<title>soy_yo&#45;&#45;brignull.com # Harry&#39;s website</title>
<path fill="none" stroke="#000000" d="M808.1447,-798.9078C858.7405,-787.488 938.3952,-769.5096 998.0712,-756.0403"/>
</g>
<!-- ae0.cr&#45;merak.lon5.bb.godaddy.com -->
<g id="node26" class="node">
<title>ae0.cr&#45;merak.lon5.bb.godaddy.com</title>
<path fill="#d3d3d3" stroke="#ffffff" d="M1473,-756C1473,-756 1227,-756 1227,-756 1221,-756 1215,-750 1215,-744 1215,-744 1215,-732 1215,-732 1215,-726 1221,-720 1227,-720 1227,-720 1473,-720 1473,-720 1479,-720 1485,-726 1485,-732 1485,-732 1485,-744 1485,-744 1485,-750 1479,-756 1473,-756"/>
<text text-anchor="middle" x="1350" y="-734.3" font-family="Helvetica,sans-Serif" font-size="14.00" fill="#000000">ae0.cr&#45;merak.lon5.bb.godaddy.com</text>
</g>
<!-- soy_yo&#45;&#45;ae0.cr&#45;merak.lon5.bb.godaddy.com -->
<g id="edge25" class="edge">
<title>soy_yo&#45;&#45;ae0.cr&#45;merak.lon5.bb.godaddy.com</title>
<path fill="none" stroke="#000000" d="M808.1733,-804.0954C890.3552,-794.2163 1060.8121,-773.6784 1205,-756 1208.2732,-755.5987 1211.5878,-755.1917 1214.9313,-754.7807"/>
</g>
<!-- 127.0.0.1 localhost # for local people -->
<g id="node2" class="node">
<title>127.0.0.1 localhost # for local people</title>
<path fill="#ff0000" stroke="#ffffff" d="M272,-684C272,-684 12,-684 12,-684 6,-684 0,-678 0,-672 0,-672 0,-660 0,-660 0,-654 6,-648 12,-648 12,-648 272,-648 272,-648 278,-648 284,-654 284,-660 284,-660 284,-672 284,-672 284,-678 278,-684 272,-684"/>
<text text-anchor="middle" x="142" y="-662.3" font-family="Helvetica,sans-Serif" font-size="14.00" fill="#ffffff">127.0.0.1 localhost # for local people</text>
</g>
<!-- localhost&#45;&#45;127.0.0.1 localhost # for local people -->
<g id="edge2" class="edge">
<title>localhost&#45;&#45;127.0.0.1 localhost # for local people</title>
<path fill="none" stroke="#000000" d="M155.4578,-719.8314C152.75,-709 149.3219,-695.2876 146.6033,-684.4133"/>
</g>
<!-- rate.sx # Command line crypto ticker -->
<g id="node4" class="node">
<title>rate.sx # Command line crypto ticker</title>
<path fill="#ff0000" stroke="#ffffff" d="M459,-540C459,-540 199,-540 199,-540 193,-540 187,-534 187,-528 187,-528 187,-516 187,-516 187,-510 193,-504 199,-504 199,-504 459,-504 459,-504 465,-504 471,-510 471,-516 471,-516 471,-528 471,-528 471,-534 465,-540 459,-540"/>
<text text-anchor="middle" x="329" y="-518.3" font-family="Helvetica,sans-Serif" font-size="14.00" fill="#ffffff">rate.sx # Command line crypto ticker</text>
</g>
<!-- ex9k1.dc7.fsn1.hetzner.com&#45;&#45;ex9k1.dc7.fsn1.hetzner.com -->
<g id="edge4" class="edge">
<title>ex9k1.dc7.fsn1.hetzner.com&#45;&#45;ex9k1.dc7.fsn1.hetzner.com</title>
<path fill="none" stroke="#000000" d="M454.291,-749.0075C465.1154,-746.802 472,-743.1328 472,-738 472,-732.8672 465.1154,-729.198 454.291,-726.9925"/>
</g>
<!-- b6.xgu.ru -->
<g id="node6" class="node">
<title>b6.xgu.ru</title>
<path fill="#d3d3d3" stroke="#ffffff" d="M375.5,-684C375.5,-684 314.5,-684 314.5,-684 308.5,-684 302.5,-678 302.5,-672 302.5,-672 302.5,-660 302.5,-660 302.5,-654 308.5,-648 314.5,-648 314.5,-648 375.5,-648 375.5,-648 381.5,-648 387.5,-654 387.5,-660 387.5,-660 387.5,-672 387.5,-672 387.5,-678 381.5,-684 375.5,-684"/>
<text text-anchor="middle" x="345" y="-662.3" font-family="Helvetica,sans-Serif" font-size="14.00" fill="#000000">b6.xgu.ru</text>
</g>
<!-- ex9k1.dc7.fsn1.hetzner.com&#45;&#45;b6.xgu.ru -->
<g id="edge5" class="edge">
<title>ex9k1.dc7.fsn1.hetzner.com&#45;&#45;b6.xgu.ru</title>
<path fill="none" stroke="#000000" d="M345,-719.8314C345,-709 345,-695.2876 345,-684.4133"/>
</g>
<!-- cheat.sh -->
<g id="node7" class="node">
<title>cheat.sh</title>
<path fill="#d3d3d3" stroke="#ffffff" d="M363.5,-612C363.5,-612 310.5,-612 310.5,-612 304.5,-612 298.5,-606 298.5,-600 298.5,-600 298.5,-588 298.5,-588 298.5,-582 304.5,-576 310.5,-576 310.5,-576 363.5,-576 363.5,-576 369.5,-576 375.5,-582 375.5,-588 375.5,-588 375.5,-600 375.5,-600 375.5,-606 369.5,-612 363.5,-612"/>
<text text-anchor="middle" x="337" y="-590.3" font-family="Helvetica,sans-Serif" font-size="14.00" fill="#000000">cheat.sh</text>
</g>
<!-- b6.xgu.ru&#45;&#45;cheat.sh -->
<g id="edge6" class="edge">
<title>b6.xgu.ru&#45;&#45;cheat.sh</title>
<path fill="none" stroke="#000000" d="M342.9813,-647.8314C341.7778,-637 340.2542,-623.2876 339.0459,-612.4133"/>
</g>
<!-- cheat.sh&#45;&#45;rate.sx # Command line crypto ticker -->
<g id="edge7" class="edge">
<title>cheat.sh&#45;&#45;rate.sx # Command line crypto ticker</title>
<path fill="none" stroke="#000000" d="M334.9813,-575.8314C333.7778,-565 332.2542,-551.2876 331.0459,-540.4133"/>
</g>
<!-- fixer.io # Fiat currencies -->
<g id="node8" class="node">
<title>fixer.io # Fiat currencies</title>
<path fill="#ff0000" stroke="#ffffff" d="M720.5,-36C720.5,-36 555.5,-36 555.5,-36 549.5,-36 543.5,-30 543.5,-24 543.5,-24 543.5,-12 543.5,-12 543.5,-6 549.5,0 555.5,0 555.5,0 720.5,0 720.5,0 726.5,0 732.5,-6 732.5,-12 732.5,-12 732.5,-24 732.5,-24 732.5,-30 726.5,-36 720.5,-36"/>
<text text-anchor="middle" x="638" y="-14.3" font-family="Helvetica,sans-Serif" font-size="14.00" fill="#ffffff">fixer.io # Fiat currencies</text>
</g>
<!-- ae1.cbs02.tl01.nyc01.networklayer.com -->
<g id="node10" class="node">
<title>ae1.cbs02.tl01.nyc01.networklayer.com</title>
<path fill="#d3d3d3" stroke="#ffffff" d="M781,-684C781,-684 503,-684 503,-684 497,-684 491,-678 491,-672 491,-672 491,-660 491,-660 491,-654 497,-648 503,-648 503,-648 781,-648 781,-648 787,-648 793,-654 793,-660 793,-660 793,-672 793,-672 793,-678 787,-684 781,-684"/>
<text text-anchor="middle" x="642" y="-662.3" font-family="Helvetica,sans-Serif" font-size="14.00" fill="#000000">ae1.cbs02.tl01.nyc01.networklayer.com</text>
</g>
<!-- ae0.cbs01.tg01.lon01.networklayer.com&#45;&#45;ae1.cbs02.tl01.nyc01.networklayer.com -->
<g id="edge9" class="edge">
<title>ae0.cbs01.tg01.lon01.networklayer.com&#45;&#45;ae1.cbs02.tl01.nyc01.networklayer.com</title>
<path fill="none" stroke="#000000" d="M642,-719.8314C642,-709 642,-695.2876 642,-684.4133"/>
</g>
<!-- ae0.cbs01.eq01.chi01.networklayer.com -->
<g id="node11" class="node">
<title>ae0.cbs01.eq01.chi01.networklayer.com</title>
<path fill="#d3d3d3" stroke="#ffffff" d="M783,-612C783,-612 501,-612 501,-612 495,-612 489,-606 489,-600 489,-600 489,-588 489,-588 489,-582 495,-576 501,-576 501,-576 783,-576 783,-576 789,-576 795,-582 795,-588 795,-588 795,-600 795,-600 795,-606 789,-612 783,-612"/>
<text text-anchor="middle" x="642" y="-590.3" font-family="Helvetica,sans-Serif" font-size="14.00" fill="#000000">ae0.cbs01.eq01.chi01.networklayer.com</text>
</g>
<!-- ae1.cbs02.tl01.nyc01.networklayer.com&#45;&#45;ae0.cbs01.eq01.chi01.networklayer.com -->
<g id="edge10" class="edge">
<title>ae1.cbs02.tl01.nyc01.networklayer.com&#45;&#45;ae0.cbs01.eq01.chi01.networklayer.com</title>
<path fill="none" stroke="#000000" d="M642,-647.8314C642,-637 642,-623.2876 642,-612.4133"/>
</g>
<!-- ae7.cbs02.eq01.chi01.networklayer.com -->
<g id="node12" class="node">
<title>ae7.cbs02.eq01.chi01.networklayer.com</title>
<path fill="#d3d3d3" stroke="#ffffff" d="M783,-540C783,-540 501,-540 501,-540 495,-540 489,-534 489,-528 489,-528 489,-516 489,-516 489,-510 495,-504 501,-504 501,-504 783,-504 783,-504 789,-504 795,-510 795,-516 795,-516 795,-528 795,-528 795,-534 789,-540 783,-540"/>
<text text-anchor="middle" x="642" y="-518.3" font-family="Helvetica,sans-Serif" font-size="14.00" fill="#000000">ae7.cbs02.eq01.chi01.networklayer.com</text>
</g>
<!-- ae0.cbs01.eq01.chi01.networklayer.com&#45;&#45;ae7.cbs02.eq01.chi01.networklayer.com -->
<g id="edge11" class="edge">
<title>ae0.cbs01.eq01.chi01.networklayer.com&#45;&#45;ae7.cbs02.eq01.chi01.networklayer.com</title>
<path fill="none" stroke="#000000" d="M642,-575.8314C642,-565 642,-551.2876 642,-540.4133"/>
</g>
<!-- ae0.cbs02.cs01.den01.networklayer.com -->
<g id="node13" class="node">
<title>ae0.cbs02.cs01.den01.networklayer.com</title>
<path fill="#d3d3d3" stroke="#ffffff" d="M781,-468C781,-468 495,-468 495,-468 489,-468 483,-462 483,-456 483,-456 483,-444 483,-444 483,-438 489,-432 495,-432 495,-432 781,-432 781,-432 787,-432 793,-438 793,-444 793,-444 793,-456 793,-456 793,-462 787,-468 781,-468"/>
<text text-anchor="middle" x="638" y="-446.3" font-family="Helvetica,sans-Serif" font-size="14.00" fill="#000000">ae0.cbs02.cs01.den01.networklayer.com</text>
</g>
<!-- ae7.cbs02.eq01.chi01.networklayer.com&#45;&#45;ae0.cbs02.cs01.den01.networklayer.com -->
<g id="edge12" class="edge">
<title>ae7.cbs02.eq01.chi01.networklayer.com&#45;&#45;ae0.cbs02.cs01.den01.networklayer.com</title>
<path fill="none" stroke="#000000" d="M640.9906,-503.8314C640.3889,-493 639.6271,-479.2876 639.023,-468.4133"/>
</g>
<!-- ae1.cbs01.eq01.sjc02.networklayer.com -->
<g id="node14" class="node">
<title>ae1.cbs01.eq01.sjc02.networklayer.com</title>
<path fill="#d3d3d3" stroke="#ffffff" d="M778.5,-396C778.5,-396 497.5,-396 497.5,-396 491.5,-396 485.5,-390 485.5,-384 485.5,-384 485.5,-372 485.5,-372 485.5,-366 491.5,-360 497.5,-360 497.5,-360 778.5,-360 778.5,-360 784.5,-360 790.5,-366 790.5,-372 790.5,-372 790.5,-384 790.5,-384 790.5,-390 784.5,-396 778.5,-396"/>
<text text-anchor="middle" x="638" y="-374.3" font-family="Helvetica,sans-Serif" font-size="14.00" fill="#000000">ae1.cbs01.eq01.sjc02.networklayer.com</text>
</g>
<!-- ae0.cbs02.cs01.den01.networklayer.com&#45;&#45;ae1.cbs01.eq01.sjc02.networklayer.com -->
<g id="edge13" class="edge">
<title>ae0.cbs02.cs01.den01.networklayer.com&#45;&#45;ae1.cbs01.eq01.sjc02.networklayer.com</title>
<path fill="none" stroke="#000000" d="M638,-431.8314C638,-421 638,-407.2876 638,-396.4133"/>
</g>
<!-- ae23.bbr02.eq01.sjc02.networklayer.com -->
<g id="node15" class="node">
<title>ae23.bbr02.eq01.sjc02.networklayer.com</title>
<path fill="#d3d3d3" stroke="#ffffff" d="M783,-324C783,-324 493,-324 493,-324 487,-324 481,-318 481,-312 481,-312 481,-300 481,-300 481,-294 487,-288 493,-288 493,-288 783,-288 783,-288 789,-288 795,-294 795,-300 795,-300 795,-312 795,-312 795,-318 789,-324 783,-324"/>
<text text-anchor="middle" x="638" y="-302.3" font-family="Helvetica,sans-Serif" font-size="14.00" fill="#000000">ae23.bbr02.eq01.sjc02.networklayer.com</text>
</g>
<!-- ae1.cbs01.eq01.sjc02.networklayer.com&#45;&#45;ae23.bbr02.eq01.sjc02.networklayer.com -->
<g id="edge14" class="edge">
<title>ae1.cbs01.eq01.sjc02.networklayer.com&#45;&#45;ae23.bbr02.eq01.sjc02.networklayer.com</title>
<path fill="none" stroke="#000000" d="M638,-359.8314C638,-349 638,-335.2876 638,-324.4133"/>
</g>
<!-- ae6.dar02.sjc01.networklayer.com -->
<g id="node16" class="node">
<title>ae6.dar02.sjc01.networklayer.com</title>
<path fill="#d3d3d3" stroke="#ffffff" d="M758,-252C758,-252 518,-252 518,-252 512,-252 506,-246 506,-240 506,-240 506,-228 506,-228 506,-222 512,-216 518,-216 518,-216 758,-216 758,-216 764,-216 770,-222 770,-228 770,-228 770,-240 770,-240 770,-246 764,-252 758,-252"/>
<text text-anchor="middle" x="638" y="-230.3" font-family="Helvetica,sans-Serif" font-size="14.00" fill="#000000">ae6.dar02.sjc01.networklayer.com</text>
</g>
<!-- ae23.bbr02.eq01.sjc02.networklayer.com&#45;&#45;ae6.dar02.sjc01.networklayer.com -->
<g id="edge15" class="edge">
<title>ae23.bbr02.eq01.sjc02.networklayer.com&#45;&#45;ae6.dar02.sjc01.networklayer.com</title>
<path fill="none" stroke="#000000" d="M638,-287.8314C638,-277 638,-263.2876 638,-252.4133"/>
</g>
<!-- 9f.76.1732.ip4.static.sl&#45;reverse.com -->
<g id="node17" class="node">
<title>9f.76.1732.ip4.static.sl&#45;reverse.com</title>
<path fill="#d3d3d3" stroke="#ffffff" d="M762.5,-180C762.5,-180 513.5,-180 513.5,-180 507.5,-180 501.5,-174 501.5,-168 501.5,-168 501.5,-156 501.5,-156 501.5,-150 507.5,-144 513.5,-144 513.5,-144 762.5,-144 762.5,-144 768.5,-144 774.5,-150 774.5,-156 774.5,-156 774.5,-168 774.5,-168 774.5,-174 768.5,-180 762.5,-180"/>
<text text-anchor="middle" x="638" y="-158.3" font-family="Helvetica,sans-Serif" font-size="14.00" fill="#000000">9f.76.1732.ip4.static.sl&#45;reverse.com</text>
</g>
<!-- ae6.dar02.sjc01.networklayer.com&#45;&#45;9f.76.1732.ip4.static.sl&#45;reverse.com -->
<g id="edge16" class="edge">
<title>ae6.dar02.sjc01.networklayer.com&#45;&#45;9f.76.1732.ip4.static.sl&#45;reverse.com</title>
<path fill="none" stroke="#000000" d="M638,-215.8314C638,-205 638,-191.2876 638,-180.4133"/>
</g>
<!-- c9.a7.559e.ip4.static.sl&#45;reverse.com -->
<g id="node18" class="node">
<title>c9.a7.559e.ip4.static.sl&#45;reverse.com</title>
<path fill="#d3d3d3" stroke="#ffffff" d="M764,-108C764,-108 512,-108 512,-108 506,-108 500,-102 500,-96 500,-96 500,-84 500,-84 500,-78 506,-72 512,-72 512,-72 764,-72 764,-72 770,-72 776,-78 776,-84 776,-84 776,-96 776,-96 776,-102 770,-108 764,-108"/>
<text text-anchor="middle" x="638" y="-86.3" font-family="Helvetica,sans-Serif" font-size="14.00" fill="#000000">c9.a7.559e.ip4.static.sl&#45;reverse.com</text>
</g>
<!-- 9f.76.1732.ip4.static.sl&#45;reverse.com&#45;&#45;c9.a7.559e.ip4.static.sl&#45;reverse.com -->
<g id="edge17" class="edge">
<title>9f.76.1732.ip4.static.sl&#45;reverse.com&#45;&#45;c9.a7.559e.ip4.static.sl&#45;reverse.com</title>
<path fill="none" stroke="#000000" d="M638,-143.8314C638,-133 638,-119.2876 638,-108.4133"/>
</g>
<!-- c9.a7.559e.ip4.static.sl&#45;reverse.com&#45;&#45;fixer.io # Fiat currencies -->
<g id="edge18" class="edge">
<title>c9.a7.559e.ip4.static.sl&#45;reverse.com&#45;&#45;fixer.io # Fiat currencies</title>
<path fill="none" stroke="#000000" d="M638,-71.8314C638,-61 638,-47.2876 638,-36.4133"/>
</g>
<!-- turpin.dev # My website -->
<g id="node19" class="node">
<title>turpin.dev # My website</title>
<path fill="#ff0000" stroke="#ffffff" d="M990.5,-468C990.5,-468 823.5,-468 823.5,-468 817.5,-468 811.5,-462 811.5,-456 811.5,-456 811.5,-444 811.5,-444 811.5,-438 817.5,-432 823.5,-432 823.5,-432 990.5,-432 990.5,-432 996.5,-432 1002.5,-438 1002.5,-444 1002.5,-444 1002.5,-456 1002.5,-456 1002.5,-462 996.5,-468 990.5,-468"/>
<text text-anchor="middle" x="907" y="-446.3" font-family="Helvetica,sans-Serif" font-size="14.00" fill="#ffffff">turpin.dev # My website</text>
</g>
<!-- 72.14.232.70 -->
<g id="node21" class="node">
<title>72.14.232.70</title>
<path fill="#d3d3d3" stroke="#ffffff" d="M928.5,-684C928.5,-684 841.5,-684 841.5,-684 835.5,-684 829.5,-678 829.5,-672 829.5,-672 829.5,-660 829.5,-660 829.5,-654 835.5,-648 841.5,-648 841.5,-648 928.5,-648 928.5,-648 934.5,-648 940.5,-654 940.5,-660 940.5,-660 940.5,-672 940.5,-672 940.5,-678 934.5,-684 928.5,-684"/>
<text text-anchor="middle" x="885" y="-662.3" font-family="Helvetica,sans-Serif" font-size="14.00" fill="#000000">72.14.232.70</text>
</g>
<!-- 209.85.143.103&#45;&#45;72.14.232.70 -->
<g id="edge20" class="edge">
<title>209.85.143.103&#45;&#45;72.14.232.70</title>
<path fill="none" stroke="#000000" d="M879.0187,-719.8314C880.2222,-709 881.7458,-695.2876 882.9541,-684.4133"/>
</g>
<!-- 216.239.42.191 -->
<g id="node22" class="node">
<title>216.239.42.191</title>
<path fill="#d3d3d3" stroke="#ffffff" d="M946.5,-612C946.5,-612 841.5,-612 841.5,-612 835.5,-612 829.5,-606 829.5,-600 829.5,-600 829.5,-588 829.5,-588 829.5,-582 835.5,-576 841.5,-576 841.5,-576 946.5,-576 946.5,-576 952.5,-576 958.5,-582 958.5,-588 958.5,-588 958.5,-600 958.5,-600 958.5,-606 952.5,-612 946.5,-612"/>
<text text-anchor="middle" x="894" y="-590.3" font-family="Helvetica,sans-Serif" font-size="14.00" fill="#000000">216.239.42.191</text>
</g>
<!-- 72.14.232.70&#45;&#45;216.239.42.191 -->
<g id="edge21" class="edge">
<title>72.14.232.70&#45;&#45;216.239.42.191</title>
<path fill="none" stroke="#000000" d="M887.2711,-647.8314C888.625,-637 890.3391,-623.2876 891.6983,-612.4133"/>
</g>
<!-- 74.125.253.175 -->
<g id="node23" class="node">
<title>74.125.253.175</title>
<path fill="#d3d3d3" stroke="#ffffff" d="M951.5,-540C951.5,-540 846.5,-540 846.5,-540 840.5,-540 834.5,-534 834.5,-528 834.5,-528 834.5,-516 834.5,-516 834.5,-510 840.5,-504 846.5,-504 846.5,-504 951.5,-504 951.5,-504 957.5,-504 963.5,-510 963.5,-516 963.5,-516 963.5,-528 963.5,-528 963.5,-534 957.5,-540 951.5,-540"/>
<text text-anchor="middle" x="899" y="-518.3" font-family="Helvetica,sans-Serif" font-size="14.00" fill="#000000">74.125.253.175</text>
</g>
<!-- 216.239.42.191&#45;&#45;74.125.253.175 -->
<g id="edge22" class="edge">
<title>216.239.42.191&#45;&#45;74.125.253.175</title>
<path fill="none" stroke="#000000" d="M895.2617,-575.8314C896.0139,-565 896.9661,-551.2876 897.7213,-540.4133"/>
</g>
<!-- 74.125.253.175&#45;&#45;turpin.dev # My website -->
<g id="edge23" class="edge">
<title>74.125.253.175&#45;&#45;turpin.dev # My website</title>
<path fill="none" stroke="#000000" d="M901.0187,-503.8314C902.2222,-493 903.7458,-479.2876 904.9541,-468.4133"/>
</g>
<!-- 7thsensedesign.com -->
<g id="node25" class="node">
<title>7thsensedesign.com</title>
<path fill="#ff0000" stroke="#ffffff" d="M1420,-396C1420,-396 1280,-396 1280,-396 1274,-396 1268,-390 1268,-384 1268,-384 1268,-372 1268,-372 1268,-366 1274,-360 1280,-360 1280,-360 1420,-360 1420,-360 1426,-360 1432,-366 1432,-372 1432,-372 1432,-384 1432,-384 1432,-390 1426,-396 1420,-396"/>
<text text-anchor="middle" x="1350" y="-374.3" font-family="Helvetica,sans-Serif" font-size="14.00" fill="#ffffff">7thsensedesign.com</text>
</g>
<!-- ae0.cr&#45;merak.lon5.bb.godaddy.com&#45;&#45;ae0.cr&#45;merak.lon5.bb.godaddy.com -->
<g id="edge26" class="edge">
<title>ae0.cr&#45;merak.lon5.bb.godaddy.com&#45;&#45;ae0.cr&#45;merak.lon5.bb.godaddy.com</title>
<path fill="none" stroke="#000000" d="M1485.0335,-748.3835C1496.1172,-746.137 1503,-742.6758 1503,-738 1503,-733.3242 1496.1172,-729.863 1485.0335,-727.6165"/>
</g>
<!-- ae1.dr&#45;master.ld5.core.webfusion.com -->
<g id="node27" class="node">
<title>ae1.dr&#45;master.ld5.core.webfusion.com</title>
<path fill="#d3d3d3" stroke="#ffffff" d="M1484.5,-684C1484.5,-684 1215.5,-684 1215.5,-684 1209.5,-684 1203.5,-678 1203.5,-672 1203.5,-672 1203.5,-660 1203.5,-660 1203.5,-654 1209.5,-648 1215.5,-648 1215.5,-648 1484.5,-648 1484.5,-648 1490.5,-648 1496.5,-654 1496.5,-660 1496.5,-660 1496.5,-672 1496.5,-672 1496.5,-678 1490.5,-684 1484.5,-684"/>
<text text-anchor="middle" x="1350" y="-662.3" font-family="Helvetica,sans-Serif" font-size="14.00" fill="#000000">ae1.dr&#45;master.ld5.core.webfusion.com</text>
</g>
<!-- ae0.cr&#45;merak.lon5.bb.godaddy.com&#45;&#45;ae1.dr&#45;master.ld5.core.webfusion.com -->
<g id="edge27" class="edge">
<title>ae0.cr&#45;merak.lon5.bb.godaddy.com&#45;&#45;ae1.dr&#45;master.ld5.core.webfusion.com</title>
<path fill="none" stroke="#000000" d="M1350,-719.8314C1350,-709 1350,-695.2876 1350,-684.4133"/>
</g>
<!-- 62.138.48.34 -->
<g id="node28" class="node">
<title>62.138.48.34</title>
<path fill="#d3d3d3" stroke="#ffffff" d="M1393.5,-612C1393.5,-612 1306.5,-612 1306.5,-612 1300.5,-612 1294.5,-606 1294.5,-600 1294.5,-600 1294.5,-588 1294.5,-588 1294.5,-582 1300.5,-576 1306.5,-576 1306.5,-576 1393.5,-576 1393.5,-576 1399.5,-576 1405.5,-582 1405.5,-588 1405.5,-588 1405.5,-600 1405.5,-600 1405.5,-606 1399.5,-612 1393.5,-612"/>
<text text-anchor="middle" x="1350" y="-590.3" font-family="Helvetica,sans-Serif" font-size="14.00" fill="#000000">62.138.48.34</text>
</g>
<!-- ae1.dr&#45;master.ld5.core.webfusion.com&#45;&#45;62.138.48.34 -->
<g id="edge28" class="edge">
<title>ae1.dr&#45;master.ld5.core.webfusion.com&#45;&#45;62.138.48.34</title>
<path fill="none" stroke="#000000" d="M1350,-647.8314C1350,-637 1350,-623.2876 1350,-612.4133"/>
</g>
<!-- ldc5&#45;ldc4.core.webfusion.com -->
<g id="node29" class="node">
<title>ldc5&#45;ldc4.core.webfusion.com</title>
<path fill="#d3d3d3" stroke="#ffffff" d="M1453,-540C1453,-540 1247,-540 1247,-540 1241,-540 1235,-534 1235,-528 1235,-528 1235,-516 1235,-516 1235,-510 1241,-504 1247,-504 1247,-504 1453,-504 1453,-504 1459,-504 1465,-510 1465,-516 1465,-516 1465,-528 1465,-528 1465,-534 1459,-540 1453,-540"/>
<text text-anchor="middle" x="1350" y="-518.3" font-family="Helvetica,sans-Serif" font-size="14.00" fill="#000000">ldc5&#45;ldc4.core.webfusion.com</text>
</g>
<!-- 62.138.48.34&#45;&#45;ldc5&#45;ldc4.core.webfusion.com -->
<g id="edge29" class="edge">
<title>62.138.48.34&#45;&#45;ldc5&#45;ldc4.core.webfusion.com</title>
<path fill="none" stroke="#000000" d="M1350,-575.8314C1350,-565 1350,-551.2876 1350,-540.4133"/>
</g>
<!-- ds8722.dedicated.turbodns.co.uk -->
<g id="node30" class="node">
<title>ds8722.dedicated.turbodns.co.uk</title>
<path fill="#d3d3d3" stroke="#ffffff" d="M1465.5,-468C1465.5,-468 1234.5,-468 1234.5,-468 1228.5,-468 1222.5,-462 1222.5,-456 1222.5,-456 1222.5,-444 1222.5,-444 1222.5,-438 1228.5,-432 1234.5,-432 1234.5,-432 1465.5,-432 1465.5,-432 1471.5,-432 1477.5,-438 1477.5,-444 1477.5,-444 1477.5,-456 1477.5,-456 1477.5,-462 1471.5,-468 1465.5,-468"/>
<text text-anchor="middle" x="1350" y="-446.3" font-family="Helvetica,sans-Serif" font-size="14.00" fill="#000000">ds8722.dedicated.turbodns.co.uk</text>
</g>
<!-- ldc5&#45;ldc4.core.webfusion.com&#45;&#45;ds8722.dedicated.turbodns.co.uk -->
<g id="edge30" class="edge">
<title>ldc5&#45;ldc4.core.webfusion.com&#45;&#45;ds8722.dedicated.turbodns.co.uk</title>
<path fill="none" stroke="#000000" d="M1350,-503.8314C1350,-493 1350,-479.2876 1350,-468.4133"/>
</g>
<!-- ds8722.dedicated.turbodns.co.uk&#45;&#45;7thsensedesign.com -->
<g id="edge31" class="edge">
<title>ds8722.dedicated.turbodns.co.uk&#45;&#45;7thsensedesign.com</title>
<path fill="none" stroke="#000000" d="M1350,-431.8314C1350,-421 1350,-407.2876 1350,-396.4133"/>
</g>
</g>
</svg>
