<?xml version="1.0" encoding="UTF-8" standalone="no"?>
<!DOCTYPE svg PUBLIC "-//W3C//DTD SVG 1.1//EN"
 "http://www.w3.org/Graphics/SVG/1.1/DTD/svg11.dtd">
<!-- Generated by graphviz version 2.40.1 (20161225.0304)
 -->
<!-- Title: %3 Pages: 1 -->
<svg width="975pt" height="427pt"
 viewBox="0.00 0.00 975.00 427.00" xmlns="http://www.w3.org/2000/svg" xmlns:xlink="http://www.w3.org/1999/xlink">
<g id="graph0" class="graph" transform="scale(1 1) rotate(0) translate(4 423)">
<title>%3</title>
<polygon fill="#ffffff" stroke="transparent" points="-4,4 -4,-423 971,-423 971,4 -4,4"/>
<text text-anchor="middle" x="151" y="-403.8" font-family="Helvetica,sans-Serif" font-size="14.00" fill="#000000">./hosts2dot.sh &#45; Thu 22 Aug 13:39:19 BST 2019</text>
<!-- soy_yo -->
<g id="node1" class="node">
<title>soy_yo</title>
<path fill="#d3d3d3" stroke="#ffffff" d="M425.5,-396C425.5,-396 395.5,-396 395.5,-396 389.5,-396 383.5,-390 383.5,-384 383.5,-384 383.5,-372 383.5,-372 383.5,-366 389.5,-360 395.5,-360 395.5,-360 425.5,-360 425.5,-360 431.5,-360 437.5,-366 437.5,-372 437.5,-372 437.5,-384 437.5,-384 437.5,-390 431.5,-396 425.5,-396"/>
<text text-anchor="middle" x="410.5" y="-374.3" font-family="Helvetica,sans-Serif" font-size="14.00" fill="#000000">laptop</text>
</g>
<!-- localhost -->
<g id="node3" class="node">
<title>localhost</title>
<path fill="#d3d3d3" stroke="#ffffff" d="M340.5,-324C340.5,-324 294.5,-324 294.5,-324 288.5,-324 282.5,-318 282.5,-312 282.5,-312 282.5,-300 282.5,-300 282.5,-294 288.5,-288 294.5,-288 294.5,-288 340.5,-288 340.5,-288 346.5,-288 352.5,-294 352.5,-300 352.5,-300 352.5,-312 352.5,-312 352.5,-318 346.5,-324 340.5,-324"/>
<text text-anchor="middle" x="317.5" y="-302.3" font-family="Helvetica,sans-Serif" font-size="14.00" fill="#000000">localhost</text>
</g>
<!-- soy_yo&#45;&#45;localhost -->
<g id="edge1" class="edge">
<title>soy_yo&#45;&#45;localhost</title>
<path fill="none" stroke="#000000" d="M387.0322,-359.8314C372.9341,-348.9167 355.0571,-335.0764 340.9603,-324.1628"/>
</g>
<!-- 2a01:4c8:42e:4955:9d93:dddb:871d:5436 -->
<g id="node5" class="node">
<title>2a01:4c8:42e:4955:9d93:dddb:871d:5436</title>
<path fill="#d3d3d3" stroke="#ffffff" d="M630,-324C630,-324 387,-324 387,-324 381,-324 375,-318 375,-312 375,-312 375,-300 375,-300 375,-294 381,-288 387,-288 387,-288 630,-288 630,-288 636,-288 642,-294 642,-300 642,-300 642,-312 642,-312 642,-318 636,-324 630,-324"/>
<text text-anchor="middle" x="508.5" y="-302.3" font-family="Helvetica,sans-Serif" font-size="14.00" fill="#000000">2a01:4c8:42e:4955:9d93:dddb:871d:5436</text>
</g>
<!-- soy_yo&#45;&#45;2a01:4c8:42e:4955:9d93:dddb:871d:5436 -->
<g id="edge3" class="edge">
<title>soy_yo&#45;&#45;2a01:4c8:42e:4955:9d93:dddb:871d:5436</title>
<path fill="none" stroke="#000000" d="M435.2295,-359.8314C450.0856,-348.9167 468.9237,-335.0764 483.7784,-324.1628"/>
</g>
<!-- 127.0.0.1 localhost # for local people -->
<g id="node2" class="node">
<title>127.0.0.1 localhost # for local people</title>
<path fill="#00ff00" stroke="#ffffff" d="M415.5,-252C415.5,-252 203.5,-252 203.5,-252 197.5,-252 191.5,-246 191.5,-240 191.5,-240 191.5,-228 191.5,-228 191.5,-222 197.5,-216 203.5,-216 203.5,-216 415.5,-216 415.5,-216 421.5,-216 427.5,-222 427.5,-228 427.5,-228 427.5,-240 427.5,-240 427.5,-246 421.5,-252 415.5,-252"/>
<text text-anchor="middle" x="309.5" y="-230.3" font-family="Helvetica,sans-Serif" font-size="14.00" fill="#ffffff">127.0.0.1 localhost # for local people</text>
</g>
<!-- localhost&#45;&#45;127.0.0.1 localhost # for local people -->
<g id="edge2" class="edge">
<title>localhost&#45;&#45;127.0.0.1 localhost # for local people</title>
<path fill="none" stroke="#000000" d="M315.4813,-287.8314C314.2778,-277 312.7542,-263.2876 311.5459,-252.4133"/>
</g>
<!-- rate.sx # Command line crypto ticker -->
<g id="node4" class="node">
<title>rate.sx # Command line crypto ticker</title>
<path fill="#00ff00" stroke="#ffffff" d="M225,-36C225,-36 12,-36 12,-36 6,-36 0,-30 0,-24 0,-24 0,-12 0,-12 0,-6 6,0 12,0 12,0 225,0 225,0 231,0 237,-6 237,-12 237,-12 237,-24 237,-24 237,-30 231,-36 225,-36"/>
<text text-anchor="middle" x="118.5" y="-14.3" font-family="Helvetica,sans-Serif" font-size="14.00" fill="#ffffff">rate.sx # Command line crypto ticker</text>
</g>
<!-- 2a01:4c8:42e:4955:9d93:dddb:871d:5436&#45;&#45;2a01:4c8:42e:4955:9d93:dddb:871d:5436 -->
<g id="edge4" class="edge">
<title>2a01:4c8:42e:4955:9d93:dddb:871d:5436&#45;&#45;2a01:4c8:42e:4955:9d93:dddb:871d:5436</title>
<path fill="none" stroke="#000000" d="M642.4565,-316.3326C653.2868,-314.0848 660,-310.6406 660,-306 660,-301.3594 653.2868,-297.9152 642.4565,-295.6674"/>
</g>
<!-- 2a01:4c8:f800:c37:: -->
<g id="node6" class="node">
<title>2a01:4c8:f800:c37::</title>
<path fill="#d3d3d3" stroke="#ffffff" d="M569,-252C569,-252 458,-252 458,-252 452,-252 446,-246 446,-240 446,-240 446,-228 446,-228 446,-222 452,-216 458,-216 458,-216 569,-216 569,-216 575,-216 581,-222 581,-228 581,-228 581,-240 581,-240 581,-246 575,-252 569,-252"/>
<text text-anchor="middle" x="513.5" y="-230.3" font-family="Helvetica,sans-Serif" font-size="14.00" fill="#000000">2a01:4c8:f800:c37::</text>
</g>
<!-- 2a01:4c8:42e:4955:9d93:dddb:871d:5436&#45;&#45;2a01:4c8:f800:c37:: -->
<g id="edge5" class="edge">
<title>2a01:4c8:42e:4955:9d93:dddb:871d:5436&#45;&#45;2a01:4c8:f800:c37::</title>
<path fill="none" stroke="#000000" d="M509.7617,-287.8314C510.5139,-277 511.4661,-263.2876 512.2213,-252.4133"/>
</g>
<!-- 2a01:4c8:f800:c4a::3 -->
<g id="node7" class="node">
<title>2a01:4c8:f800:c4a::3</title>
<path fill="#d3d3d3" stroke="#ffffff" d="M573,-180C573,-180 454,-180 454,-180 448,-180 442,-174 442,-168 442,-168 442,-156 442,-156 442,-150 448,-144 454,-144 454,-144 573,-144 573,-144 579,-144 585,-150 585,-156 585,-156 585,-168 585,-168 585,-174 579,-180 573,-180"/>
<text text-anchor="middle" x="513.5" y="-158.3" font-family="Helvetica,sans-Serif" font-size="14.00" fill="#000000">2a01:4c8:f800:c4a::3</text>
</g>
<!-- 2a01:4c8:f800:c37::&#45;&#45;2a01:4c8:f800:c4a::3 -->
<g id="edge6" class="edge">
<title>2a01:4c8:f800:c37::&#45;&#45;2a01:4c8:f800:c4a::3</title>
<path fill="none" stroke="#000000" d="M513.5,-215.8314C513.5,-205 513.5,-191.2876 513.5,-180.4133"/>
</g>
<!-- 2a01:4c8:f800:c06::2 -->
<g id="node8" class="node">
<title>2a01:4c8:f800:c06::2</title>
<path fill="#d3d3d3" stroke="#ffffff" d="M573,-108C573,-108 454,-108 454,-108 448,-108 442,-102 442,-96 442,-96 442,-84 442,-84 442,-78 448,-72 454,-72 454,-72 573,-72 573,-72 579,-72 585,-78 585,-84 585,-84 585,-96 585,-96 585,-102 579,-108 573,-108"/>
<text text-anchor="middle" x="513.5" y="-86.3" font-family="Helvetica,sans-Serif" font-size="14.00" fill="#000000">2a01:4c8:f800:c06::2</text>
</g>
<!-- 2a01:4c8:f800:c4a::3&#45;&#45;2a01:4c8:f800:c06::2 -->
<g id="edge7" class="edge">
<title>2a01:4c8:f800:c4a::3&#45;&#45;2a01:4c8:f800:c06::2</title>
<path fill="none" stroke="#000000" d="M513.5,-143.8314C513.5,-133 513.5,-119.2876 513.5,-108.4133"/>
</g>
<!-- 2a01:4c8:f800:c06::2&#45;&#45;rate.sx # Command line crypto ticker -->
<g id="edge8" class="edge">
<title>2a01:4c8:f800:c06::2&#45;&#45;rate.sx # Command line crypto ticker</title>
<path fill="none" stroke="#000000" d="M441.9685,-76.9613C379.1629,-65.5132 287.1886,-48.7483 217.354,-36.019"/>
</g>
<!-- fixer.io # Fiat currencies -->
<g id="node9" class="node">
<title>fixer.io # Fiat currencies</title>
<path fill="#ff0000" stroke="#ffffff" d="M403.5,-36C403.5,-36 267.5,-36 267.5,-36 261.5,-36 255.5,-30 255.5,-24 255.5,-24 255.5,-12 255.5,-12 255.5,-6 261.5,0 267.5,0 267.5,0 403.5,0 403.5,0 409.5,0 415.5,-6 415.5,-12 415.5,-12 415.5,-24 415.5,-24 415.5,-30 409.5,-36 403.5,-36"/>
<text text-anchor="middle" x="335.5" y="-14.3" font-family="Helvetica,sans-Serif" font-size="14.00" fill="#ffffff">fixer.io # Fiat currencies</text>
</g>
<!-- 2a01:4c8:f800:c06::2&#45;&#45;fixer.io # Fiat currencies -->
<g id="edge9" class="edge">
<title>2a01:4c8:f800:c06::2&#45;&#45;fixer.io # Fiat currencies</title>
<path fill="none" stroke="#000000" d="M468.5831,-71.8314C441.4966,-60.875 407.1221,-46.9708 380.0939,-36.038"/>
</g>
<!-- turpin.dev # My website -->
<g id="node10" class="node">
<title>turpin.dev # My website</title>
<path fill="#ff0000" stroke="#ffffff" d="M581,-36C581,-36 446,-36 446,-36 440,-36 434,-30 434,-24 434,-24 434,-12 434,-12 434,-6 440,0 446,0 446,0 581,0 581,0 587,0 593,-6 593,-12 593,-12 593,-24 593,-24 593,-30 587,-36 581,-36"/>
<text text-anchor="middle" x="513.5" y="-14.3" font-family="Helvetica,sans-Serif" font-size="14.00" fill="#ffffff">turpin.dev # My website</text>
</g>
<!-- 2a01:4c8:f800:c06::2&#45;&#45;turpin.dev # My website -->
<g id="edge10" class="edge">
<title>2a01:4c8:f800:c06::2&#45;&#45;turpin.dev # My website</title>
<path fill="none" stroke="#000000" d="M513.5,-71.8314C513.5,-61 513.5,-47.2876 513.5,-36.4133"/>
</g>
<!-- brignull.com # Harry&#39;s website -->
<g id="node11" class="node">
<title>brignull.com # Harry&#39;s website</title>
<path fill="#00ff00" stroke="#ffffff" d="M796,-36C796,-36 623,-36 623,-36 617,-36 611,-30 611,-24 611,-24 611,-12 611,-12 611,-6 617,0 623,0 623,0 796,0 796,0 802,0 808,-6 808,-12 808,-12 808,-24 808,-24 808,-30 802,-36 796,-36"/>
<text text-anchor="middle" x="709.5" y="-14.3" font-family="Helvetica,sans-Serif" font-size="14.00" fill="#ffffff">brignull.com # Harry&#39;s website</text>
</g>
<!-- 2a01:4c8:f800:c06::2&#45;&#45;brignull.com # Harry&#39;s website -->
<g id="edge11" class="edge">
<title>2a01:4c8:f800:c06::2&#45;&#45;brignull.com # Harry&#39;s website</title>
<path fill="none" stroke="#000000" d="M562.7061,-71.9243C592.5294,-60.9688 630.4467,-47.04 660.2737,-36.0831"/>
</g>
<!-- 7thsensedesign.com -->
<g id="node12" class="node">
<title>7thsensedesign.com</title>
<path fill="#ff0000" stroke="#ffffff" d="M955,-36C955,-36 838,-36 838,-36 832,-36 826,-30 826,-24 826,-24 826,-12 826,-12 826,-6 832,0 838,0 838,0 955,0 955,0 961,0 967,-6 967,-12 967,-12 967,-24 967,-24 967,-30 961,-36 955,-36"/>
<text text-anchor="middle" x="896.5" y="-14.3" font-family="Helvetica,sans-Serif" font-size="14.00" fill="#ffffff">7thsensedesign.com</text>
</g>
<!-- 2a01:4c8:f800:c06::2&#45;&#45;7thsensedesign.com -->
<g id="edge12" class="edge">
<title>2a01:4c8:f800:c06::2&#45;&#45;7thsensedesign.com</title>
<path fill="none" stroke="#000000" d="M585.2424,-78.2597C646.9613,-67.9202 738.3014,-52.047 817.5,-36 820.2573,-35.4413 823.066,-34.8601 825.9012,-34.2632"/>
</g>
</g>
</svg>
