<?xml version="1.0" encoding="UTF-8" standalone="no"?>
<!DOCTYPE svg PUBLIC "-//W3C//DTD SVG 1.1//EN"
 "http://www.w3.org/Graphics/SVG/1.1/DTD/svg11.dtd">
<!-- Generated by graphviz version 2.40.1 (20161225.0304)
 -->
<!-- Title: %3 Pages: 1 -->
<svg width="1094pt" height="211pt"
 viewBox="0.00 0.00 1093.50 211.00" xmlns="http://www.w3.org/2000/svg" xmlns:xlink="http://www.w3.org/1999/xlink">
<g id="graph0" class="graph" transform="scale(1 1) rotate(0) translate(4 207)">
<title>%3</title>
<polygon fill="#ffffff" stroke="transparent" points="-4,4 -4,-207 1089.5,-207 1089.5,4 -4,4"/>
<text text-anchor="middle" x="151" y="-187.8" font-family="Helvetica,sans-Serif" font-size="14.00" fill="#000000">./hosts2dot.sh &#45; Thu 22 Aug 13:15:55 BST 2019</text>
<!-- soy_yo -->
<g id="node1" class="node">
<title>soy_yo</title>
<path fill="#d3d3d3" stroke="#ffffff" d="M558,-180C558,-180 528,-180 528,-180 522,-180 516,-174 516,-168 516,-168 516,-156 516,-156 516,-150 522,-144 528,-144 528,-144 558,-144 558,-144 564,-144 570,-150 570,-156 570,-156 570,-168 570,-168 570,-174 564,-180 558,-180"/>
<text text-anchor="middle" x="543" y="-158.3" font-family="Helvetica,sans-Serif" font-size="14.00" fill="#000000">laptop</text>
</g>
<!-- localhost -->
<g id="node3" class="node">
<title>localhost</title>
<path fill="#d3d3d3" stroke="#ffffff" d="M228,-108C228,-108 182,-108 182,-108 176,-108 170,-102 170,-96 170,-96 170,-84 170,-84 170,-78 176,-72 182,-72 182,-72 228,-72 228,-72 234,-72 240,-78 240,-84 240,-84 240,-96 240,-96 240,-102 234,-108 228,-108"/>
<text text-anchor="middle" x="205" y="-86.3" font-family="Helvetica,sans-Serif" font-size="14.00" fill="#000000">localhost</text>
</g>
<!-- soy_yo&#45;&#45;localhost -->
<g id="edge1" class="edge">
<title>soy_yo&#45;&#45;localhost</title>
<path fill="none" stroke="#000000" d="M515.9114,-156.2296C455.1302,-143.2822 307.9204,-111.9239 240.1807,-97.4941"/>
</g>
<!-- send -->
<g id="node5" class="node">
<title>send</title>
<path fill="#d3d3d3" stroke="#ffffff" d="M344,-108C344,-108 314,-108 314,-108 308,-108 302,-102 302,-96 302,-96 302,-84 302,-84 302,-78 308,-72 314,-72 314,-72 344,-72 344,-72 350,-72 356,-78 356,-84 356,-84 356,-96 356,-96 356,-102 350,-108 344,-108"/>
<text text-anchor="middle" x="329" y="-86.3" font-family="Helvetica,sans-Serif" font-size="14.00" fill="#000000">send</text>
</g>
<!-- soy_yo&#45;&#45;send -->
<g id="edge3" class="edge">
<title>soy_yo&#45;&#45;send</title>
<path fill="none" stroke="#000000" d="M515.9787,-155.3289C480.6729,-146.2686 417.2012,-128.7952 365,-108 362.1437,-106.8621 359.2058,-105.5837 356.2987,-104.2466"/>
</g>
<!-- fixer.io # Fiat currencies -->
<g id="node6" class="node">
<title>fixer.io # Fiat currencies</title>
<path fill="#ff0000" stroke="#ffffff" d="M522,-108C522,-108 386,-108 386,-108 380,-108 374,-102 374,-96 374,-96 374,-84 374,-84 374,-78 380,-72 386,-72 386,-72 522,-72 522,-72 528,-72 534,-78 534,-84 534,-84 534,-96 534,-96 534,-102 528,-108 522,-108"/>
<text text-anchor="middle" x="454" y="-86.3" font-family="Helvetica,sans-Serif" font-size="14.00" fill="#ffffff">fixer.io # Fiat currencies</text>
</g>
<!-- soy_yo&#45;&#45;fixer.io # Fiat currencies -->
<g id="edge5" class="edge">
<title>soy_yo&#45;&#45;fixer.io # Fiat currencies</title>
<path fill="none" stroke="#000000" d="M520.5415,-143.8314C507.0498,-132.9167 489.9417,-119.0764 476.4513,-108.1628"/>
</g>
<!-- turpin.dev # My website -->
<g id="node7" class="node">
<title>turpin.dev # My website</title>
<path fill="#ff0000" stroke="#ffffff" d="M699.5,-108C699.5,-108 564.5,-108 564.5,-108 558.5,-108 552.5,-102 552.5,-96 552.5,-96 552.5,-84 552.5,-84 552.5,-78 558.5,-72 564.5,-72 564.5,-72 699.5,-72 699.5,-72 705.5,-72 711.5,-78 711.5,-84 711.5,-84 711.5,-96 711.5,-96 711.5,-102 705.5,-108 699.5,-108"/>
<text text-anchor="middle" x="632" y="-86.3" font-family="Helvetica,sans-Serif" font-size="14.00" fill="#ffffff">turpin.dev # My website</text>
</g>
<!-- soy_yo&#45;&#45;turpin.dev # My website -->
<g id="edge6" class="edge">
<title>soy_yo&#45;&#45;turpin.dev # My website</title>
<path fill="none" stroke="#000000" d="M565.4585,-143.8314C578.9502,-132.9167 596.0583,-119.0764 609.5487,-108.1628"/>
</g>
<!-- brignull.com # Harry&#39;s website -->
<g id="node8" class="node">
<title>brignull.com # Harry&#39;s website</title>
<path fill="#ff0000" stroke="#ffffff" d="M914.5,-108C914.5,-108 741.5,-108 741.5,-108 735.5,-108 729.5,-102 729.5,-96 729.5,-96 729.5,-84 729.5,-84 729.5,-78 735.5,-72 741.5,-72 741.5,-72 914.5,-72 914.5,-72 920.5,-72 926.5,-78 926.5,-84 926.5,-84 926.5,-96 926.5,-96 926.5,-102 920.5,-108 914.5,-108"/>
<text text-anchor="middle" x="828" y="-86.3" font-family="Helvetica,sans-Serif" font-size="14.00" fill="#ffffff">brignull.com # Harry&#39;s website</text>
</g>
<!-- soy_yo&#45;&#45;brignull.com # Harry&#39;s website -->
<g id="edge7" class="edge">
<title>soy_yo&#45;&#45;brignull.com # Harry&#39;s website</title>
<path fill="none" stroke="#000000" d="M570.069,-155.1615C612.5173,-144.4377 696.1398,-123.312 756.6882,-108.0156"/>
</g>
<!-- 7thsensedesign.com -->
<g id="node9" class="node">
<title>7thsensedesign.com</title>
<path fill="#ff0000" stroke="#ffffff" d="M1073.5,-108C1073.5,-108 956.5,-108 956.5,-108 950.5,-108 944.5,-102 944.5,-96 944.5,-96 944.5,-84 944.5,-84 944.5,-78 950.5,-72 956.5,-72 956.5,-72 1073.5,-72 1073.5,-72 1079.5,-72 1085.5,-78 1085.5,-84 1085.5,-84 1085.5,-96 1085.5,-96 1085.5,-102 1079.5,-108 1073.5,-108"/>
<text text-anchor="middle" x="1015" y="-86.3" font-family="Helvetica,sans-Serif" font-size="14.00" fill="#ffffff">7thsensedesign.com</text>
</g>
<!-- soy_yo&#45;&#45;7thsensedesign.com -->
<g id="edge8" class="edge">
<title>soy_yo&#45;&#45;7thsensedesign.com</title>
<path fill="none" stroke="#000000" d="M570.2884,-159.0832C634.3908,-152.0502 799.4757,-132.8837 936,-108 938.7678,-107.4955 941.5852,-106.96 944.4278,-106.4014"/>
</g>
<!-- 127.0.0.1 localhost # for local people -->
<g id="node2" class="node">
<title>127.0.0.1 localhost # for local people</title>
<path fill="#00ff00" stroke="#ffffff" d="M224,-36C224,-36 12,-36 12,-36 6,-36 0,-30 0,-24 0,-24 0,-12 0,-12 0,-6 6,0 12,0 12,0 224,0 224,0 230,0 236,-6 236,-12 236,-12 236,-24 236,-24 236,-30 230,-36 224,-36"/>
<text text-anchor="middle" x="118" y="-14.3" font-family="Helvetica,sans-Serif" font-size="14.00" fill="#ffffff">127.0.0.1 localhost # for local people</text>
</g>
<!-- localhost&#45;&#45;127.0.0.1 localhost # for local people -->
<g id="edge2" class="edge">
<title>localhost&#45;&#45;127.0.0.1 localhost # for local people</title>
<path fill="none" stroke="#000000" d="M183.0462,-71.8314C169.8577,-60.9167 153.134,-47.0764 139.9467,-36.1628"/>
</g>
<!-- rate.sx # Command line crypto ticker -->
<g id="node4" class="node">
<title>rate.sx # Command line crypto ticker</title>
<path fill="#ff0000" stroke="#ffffff" d="M479.5,-36C479.5,-36 266.5,-36 266.5,-36 260.5,-36 254.5,-30 254.5,-24 254.5,-24 254.5,-12 254.5,-12 254.5,-6 260.5,0 266.5,0 266.5,0 479.5,0 479.5,0 485.5,0 491.5,-6 491.5,-12 491.5,-12 491.5,-24 491.5,-24 491.5,-30 485.5,-36 479.5,-36"/>
<text text-anchor="middle" x="373" y="-14.3" font-family="Helvetica,sans-Serif" font-size="14.00" fill="#ffffff">rate.sx # Command line crypto ticker</text>
</g>
<!-- send&#45;&#45;rate.sx # Command line crypto ticker -->
<g id="edge4" class="edge">
<title>send&#45;&#45;rate.sx # Command line crypto ticker</title>
<path fill="none" stroke="#000000" d="M340.1031,-71.8314C346.7222,-61 355.102,-47.2876 361.7474,-36.4133"/>
</g>
</g>
</svg>
