<?xml version="1.0" encoding="UTF-8" standalone="no"?>
<!DOCTYPE svg PUBLIC "-//W3C//DTD SVG 1.1//EN"
 "http://www.w3.org/Graphics/SVG/1.1/DTD/svg11.dtd">
<!-- Generated by graphviz version 2.40.1 (20161225.0304)
 -->
<!-- Title: %3 Pages: 1 -->
<svg width="1292pt" height="211pt"
 viewBox="0.00 0.00 1291.50 211.00" xmlns="http://www.w3.org/2000/svg" xmlns:xlink="http://www.w3.org/1999/xlink">
<g id="graph0" class="graph" transform="scale(1 1) rotate(0) translate(4 207)">
<title>%3</title>
<polygon fill="#ffffff" stroke="transparent" points="-4,4 -4,-207 1287.5,-207 1287.5,4 -4,4"/>
<text text-anchor="middle" x="147.5" y="-187.8" font-family="Helvetica,sans-Serif" font-size="14.00" fill="#000000">./hosts2dot.sh &#45; Fri 23 Aug 10:27:50 BST 2019</text>
<!-- soy_yo -->
<g id="node1" class="node">
<title>soy_yo</title>
<path fill="#d3d3d3" stroke="#ffffff" d="M664,-180C664,-180 634,-180 634,-180 628,-180 622,-174 622,-168 622,-168 622,-156 622,-156 622,-150 628,-144 634,-144 634,-144 664,-144 664,-144 670,-144 676,-150 676,-156 676,-156 676,-168 676,-168 676,-174 670,-180 664,-180"/>
<text text-anchor="middle" x="649" y="-158.3" font-family="Helvetica,sans-Serif" font-size="14.00" fill="#000000">laptop</text>
</g>
<!-- localhost -->
<g id="node3" class="node">
<title>localhost</title>
<path fill="#d3d3d3" stroke="#ffffff" d="M225,-108C225,-108 179,-108 179,-108 173,-108 167,-102 167,-96 167,-96 167,-84 167,-84 167,-78 173,-72 179,-72 179,-72 225,-72 225,-72 231,-72 237,-78 237,-84 237,-84 237,-96 237,-96 237,-102 231,-108 225,-108"/>
<text text-anchor="middle" x="202" y="-86.3" font-family="Helvetica,sans-Serif" font-size="14.00" fill="#000000">localhost</text>
</g>
<!-- soy_yo&#45;&#45;localhost -->
<g id="edge1" class="edge">
<title>soy_yo&#45;&#45;localhost</title>
<path fill="none" stroke="#000000" d="M621.711,-157.6045C544.2793,-145.1322 323.2314,-109.5272 237.0266,-95.6419"/>
</g>
<!-- cheat.sh -->
<g id="node5" class="node">
<title>cheat.sh</title>
<path fill="#d3d3d3" stroke="#ffffff" d="M395,-108C395,-108 351,-108 351,-108 345,-108 339,-102 339,-96 339,-96 339,-84 339,-84 339,-78 345,-72 351,-72 351,-72 395,-72 395,-72 401,-72 407,-78 407,-84 407,-84 407,-96 407,-96 407,-102 401,-108 395,-108"/>
<text text-anchor="middle" x="373" y="-86.3" font-family="Helvetica,sans-Serif" font-size="14.00" fill="#000000">cheat.sh</text>
</g>
<!-- soy_yo&#45;&#45;cheat.sh -->
<g id="edge3" class="edge">
<title>soy_yo&#45;&#45;cheat.sh</title>
<path fill="none" stroke="#000000" d="M621.6885,-157.2208C577.7504,-149.1883 488.9102,-131.5233 416,-108 413.0732,-107.0557 410.0679,-105.9952 407.0718,-104.8737"/>
</g>
<!-- c9.a7.559e.ip4.static.sl&#45;reverse.com -->
<g id="node7" class="node">
<title>c9.a7.559e.ip4.static.sl&#45;reverse.com</title>
<path fill="#d3d3d3" stroke="#ffffff" d="M646.5,-108C646.5,-108 437.5,-108 437.5,-108 431.5,-108 425.5,-102 425.5,-96 425.5,-96 425.5,-84 425.5,-84 425.5,-78 431.5,-72 437.5,-72 437.5,-72 646.5,-72 646.5,-72 652.5,-72 658.5,-78 658.5,-84 658.5,-84 658.5,-96 658.5,-96 658.5,-102 652.5,-108 646.5,-108"/>
<text text-anchor="middle" x="542" y="-86.3" font-family="Helvetica,sans-Serif" font-size="14.00" fill="#000000">c9.a7.559e.ip4.static.sl&#45;reverse.com</text>
</g>
<!-- soy_yo&#45;&#45;c9.a7.559e.ip4.static.sl&#45;reverse.com -->
<g id="edge5" class="edge">
<title>soy_yo&#45;&#45;c9.a7.559e.ip4.static.sl&#45;reverse.com</title>
<path fill="none" stroke="#000000" d="M621.9994,-143.8314C605.779,-132.9167 585.2108,-119.0764 568.992,-108.1628"/>
</g>
<!-- turpin.dev # My website -->
<g id="node8" class="node">
<title>turpin.dev # My website</title>
<path fill="#ff0000" stroke="#ffffff" d="M823.5,-108C823.5,-108 688.5,-108 688.5,-108 682.5,-108 676.5,-102 676.5,-96 676.5,-96 676.5,-84 676.5,-84 676.5,-78 682.5,-72 688.5,-72 688.5,-72 823.5,-72 823.5,-72 829.5,-72 835.5,-78 835.5,-84 835.5,-84 835.5,-96 835.5,-96 835.5,-102 829.5,-108 823.5,-108"/>
<text text-anchor="middle" x="756" y="-86.3" font-family="Helvetica,sans-Serif" font-size="14.00" fill="#ffffff">turpin.dev # My website</text>
</g>
<!-- soy_yo&#45;&#45;turpin.dev # My website -->
<g id="edge7" class="edge">
<title>soy_yo&#45;&#45;turpin.dev # My website</title>
<path fill="none" stroke="#000000" d="M676.0006,-143.8314C692.221,-132.9167 712.7892,-119.0764 729.008,-108.1628"/>
</g>
<!-- brignull.com # Harry&#39;s website -->
<g id="node9" class="node">
<title>brignull.com # Harry&#39;s website</title>
<path fill="#ff0000" stroke="#ffffff" d="M1038.5,-108C1038.5,-108 865.5,-108 865.5,-108 859.5,-108 853.5,-102 853.5,-96 853.5,-96 853.5,-84 853.5,-84 853.5,-78 859.5,-72 865.5,-72 865.5,-72 1038.5,-72 1038.5,-72 1044.5,-72 1050.5,-78 1050.5,-84 1050.5,-84 1050.5,-96 1050.5,-96 1050.5,-102 1044.5,-108 1038.5,-108"/>
<text text-anchor="middle" x="952" y="-86.3" font-family="Helvetica,sans-Serif" font-size="14.00" fill="#ffffff">brignull.com # Harry&#39;s website</text>
</g>
<!-- soy_yo&#45;&#45;brignull.com # Harry&#39;s website -->
<g id="edge8" class="edge">
<title>soy_yo&#45;&#45;brignull.com # Harry&#39;s website</title>
<path fill="none" stroke="#000000" d="M676.1559,-155.5471C720.7498,-144.9505 811.0405,-123.4953 876.1946,-108.0132"/>
</g>
<!-- ds8722.dedicated.turbodns.co.uk -->
<g id="node11" class="node">
<title>ds8722.dedicated.turbodns.co.uk</title>
<path fill="#d3d3d3" stroke="#ffffff" d="M1271.5,-108C1271.5,-108 1080.5,-108 1080.5,-108 1074.5,-108 1068.5,-102 1068.5,-96 1068.5,-96 1068.5,-84 1068.5,-84 1068.5,-78 1074.5,-72 1080.5,-72 1080.5,-72 1271.5,-72 1271.5,-72 1277.5,-72 1283.5,-78 1283.5,-84 1283.5,-84 1283.5,-96 1283.5,-96 1283.5,-102 1277.5,-108 1271.5,-108"/>
<text text-anchor="middle" x="1176" y="-86.3" font-family="Helvetica,sans-Serif" font-size="14.00" fill="#000000">ds8722.dedicated.turbodns.co.uk</text>
</g>
<!-- soy_yo&#45;&#45;ds8722.dedicated.turbodns.co.uk -->
<g id="edge9" class="edge">
<title>soy_yo&#45;&#45;ds8722.dedicated.turbodns.co.uk</title>
<path fill="none" stroke="#000000" d="M676.4464,-158.6183C742.5383,-150.4262 915.7388,-128.6668 1060,-108 1062.7235,-107.6098 1065.4823,-107.2108 1068.2652,-106.8048"/>
</g>
<!-- 127.0.0.1 localhost # for local people -->
<g id="node2" class="node">
<title>127.0.0.1 localhost # for local people</title>
<path fill="#00ff00" stroke="#ffffff" d="M224,-36C224,-36 12,-36 12,-36 6,-36 0,-30 0,-24 0,-24 0,-12 0,-12 0,-6 6,0 12,0 12,0 224,0 224,0 230,0 236,-6 236,-12 236,-12 236,-24 236,-24 236,-30 230,-36 224,-36"/>
<text text-anchor="middle" x="118" y="-14.3" font-family="Helvetica,sans-Serif" font-size="14.00" fill="#ffffff">127.0.0.1 localhost # for local people</text>
</g>
<!-- localhost&#45;&#45;127.0.0.1 localhost # for local people -->
<g id="edge2" class="edge">
<title>localhost&#45;&#45;127.0.0.1 localhost # for local people</title>
<path fill="none" stroke="#000000" d="M180.8033,-71.8314C168.0695,-60.9167 151.9225,-47.0764 139.19,-36.1628"/>
</g>
<!-- rate.sx # Command line crypto ticker -->
<g id="node4" class="node">
<title>rate.sx # Command line crypto ticker</title>
<path fill="#ff0000" stroke="#ffffff" d="M479.5,-36C479.5,-36 266.5,-36 266.5,-36 260.5,-36 254.5,-30 254.5,-24 254.5,-24 254.5,-12 254.5,-12 254.5,-6 260.5,0 266.5,0 266.5,0 479.5,0 479.5,0 485.5,0 491.5,-6 491.5,-12 491.5,-12 491.5,-24 491.5,-24 491.5,-30 485.5,-36 479.5,-36"/>
<text text-anchor="middle" x="373" y="-14.3" font-family="Helvetica,sans-Serif" font-size="14.00" fill="#ffffff">rate.sx # Command line crypto ticker</text>
</g>
<!-- cheat.sh&#45;&#45;rate.sx # Command line crypto ticker -->
<g id="edge4" class="edge">
<title>cheat.sh&#45;&#45;rate.sx # Command line crypto ticker</title>
<path fill="none" stroke="#000000" d="M373,-71.8314C373,-61 373,-47.2876 373,-36.4133"/>
</g>
<!-- fixer.io # Fiat currencies -->
<g id="node6" class="node">
<title>fixer.io # Fiat currencies</title>
<path fill="#ff0000" stroke="#ffffff" d="M658,-36C658,-36 522,-36 522,-36 516,-36 510,-30 510,-24 510,-24 510,-12 510,-12 510,-6 516,0 522,0 522,0 658,0 658,0 664,0 670,-6 670,-12 670,-12 670,-24 670,-24 670,-30 664,-36 658,-36"/>
<text text-anchor="middle" x="590" y="-14.3" font-family="Helvetica,sans-Serif" font-size="14.00" fill="#ffffff">fixer.io # Fiat currencies</text>
</g>
<!-- c9.a7.559e.ip4.static.sl&#45;reverse.com&#45;&#45;fixer.io # Fiat currencies -->
<g id="edge6" class="edge">
<title>c9.a7.559e.ip4.static.sl&#45;reverse.com&#45;&#45;fixer.io # Fiat currencies</title>
<path fill="none" stroke="#000000" d="M554.1124,-71.8314C561.3333,-61 570.4749,-47.2876 577.7245,-36.4133"/>
</g>
<!-- 7thsensedesign.com -->
<g id="node10" class="node">
<title>7thsensedesign.com</title>
<path fill="#ff0000" stroke="#ffffff" d="M1234.5,-36C1234.5,-36 1117.5,-36 1117.5,-36 1111.5,-36 1105.5,-30 1105.5,-24 1105.5,-24 1105.5,-12 1105.5,-12 1105.5,-6 1111.5,0 1117.5,0 1117.5,0 1234.5,0 1234.5,0 1240.5,0 1246.5,-6 1246.5,-12 1246.5,-12 1246.5,-24 1246.5,-24 1246.5,-30 1240.5,-36 1234.5,-36"/>
<text text-anchor="middle" x="1176" y="-14.3" font-family="Helvetica,sans-Serif" font-size="14.00" fill="#ffffff">7thsensedesign.com</text>
</g>
<!-- ds8722.dedicated.turbodns.co.uk&#45;&#45;7thsensedesign.com -->
<g id="edge10" class="edge">
<title>ds8722.dedicated.turbodns.co.uk&#45;&#45;7thsensedesign.com</title>
<path fill="none" stroke="#000000" d="M1176,-71.8314C1176,-61 1176,-47.2876 1176,-36.4133"/>
</g>
</g>
</svg>
